<svg xmlns="http://www.w3.org/2000/svg" width="225" height="225"><path fill="#FAFAFA" stroke="#FAFAFA" d="M188.5 0v1-1zm4 1v1-1zm-168 1v1-1zm174 0v1-1zm-177 1v1-1zm180 0v1-1zm-182 1v1-1zm184 0v1-1zm-187 2v1-1zm190 0v1-1zm-177 2l1.5.5-1.5.5V8zm163 0l1.5.5-1.5.5V8zm-167 1v1-1zm172 0v1-1zm-185 1v1-1zm11 0v1-1zm176 0v1-1zm11 0v1-1zm-189 1l-4 5 4-5zm180 0l4 5-4-5zm11 2v1-1zm1 2v1-1zm-197 2v1-1zm190 0v1-1zm-191 2v1-1zm192 0v1-1zm-193 4l.5 1.5h-1l.5-1.5zm194 0l.5 1.5h-1l.5-1.5zm12 7v1-1zm-206 23l.5 1.5h-1l.5-1.5zm194 0l.5 1.5h-1l.5-1.5zm-193 5v1-1zm192 0v1-1zm-191 2v1-1zm190 0v1-1zm-189 2l4 5-4-5zm188 0l-4 5 4-5zm-182 5v1-1zm176 0v1-1zm-174 1v1-1zm172 0v1-1zm-168 1l1.5.5-1.5.5v-1zm163 0l1.5.5-1.5.5v-1zm-159 16v1-1zm82 5v1-1zm51 0v1-1zm-36 6v1-1zm20 2v1-1zm8 0v1-1zm-36 1l.5 1.5h-1l.5-1.5zm35 1v1-1zm-25 1v1-1zm-8 1v1-1zm-10 1v1-1zm34 0v1-1zm-23 2v1-1zm21 3v1-1zm-33 8v1-1zm16 0v1-1zm-8 2v1-1zm47 1v1-1zm-28 4v1-1zm-8 1v1-1zm28 0v1-1zm-48 5v1-1zm23 3v1-1zm34 2v1-1zm-76 2v1-1zm-64 10l1.5.5-1.5.5v-1zm163 0l1.5.5-1.5.5v-1zm-167 1v1-1zm172 0v1-1zm-174 1v1-1zm176 0v1-1zm-178 1l-4 5 4-5zm180 0l4 5-4-5zm-185 6v1-1zm190 0v1-1zm-191 2v1-1zm192 0v1-1zm-193 4l.5 1.5h-1l.5-1.5zm194 0l.5 1.5h-1l.5-1.5zm13 25v1-1zm-221 2v1-1zm14 3l.5 1.5h-1l.5-1.5zm194 0l.5 1.5h-1l.5-1.5zm-207 1v1-1zm14 4v1-1zm192 0v1-1zm-191 2v1-1zm190 0v1-1zm-189 2l4 5-4-5zm188 0l-4 5 4-5zm-182 5v1-1zm176 0v1-1zm-174 1v1-1zm172 0v1-1zm15 0v1-1zm-183 1l1.5.5-1.5.5v-1zm163 0l1.5.5-1.5.5v-1zm14 5v1-1zm-176 8v1-1zm156 1v1-1z"/><path fill="#FFF" stroke="#FFF" d="M0 0l33 .5L21.5 3 12 10.5l-7 10L.5 33 0 0zm189.5 0h35l.5.5V225H.5l-.5-.5v-35h1l3 10L16.5 214q7.4 6.1 19 8h151q17.3-3.7 26.5-15.5 6.6-7.9 9-20v-151l-2-8-7-14-6.5-7.5-8-4-9-1V0z"/><path fill="#FFF" stroke="#FFF" d="M31.5 8h160l9 3 5.5 5.5 3 9v27l-3 9-5.5 5.5-9 3h-160l-9-3-5.5-5.5-3-9v-27l3-9 5.5-5.5 9-3zM26 85h6.5l1.5 1.5V111h26V85.5l.5-.5H68v51.5l-.5.5H60v-18H34v18h-8V85zm44 0h38.5l1.5 1.5q1.5 6-1.5 7.5H94v41.5l-1.5 1.5H85V94.5l-.5-.5H70v-9zm46 0h9.5l1.5 1.5 13.5 37.5 16-39h9.5v5.5l1 1v13l1 1 1 29 1 1-1.5 1.5H161l-1-28.5-1-1-.5-9.5-14.5 38q-6.1 1.8-8-1.5L124 99l-2 .5v18l-1 1q1.2 11.7-1 18.5h-8v-6.5l1-1v-12l1-1v-12l1-1v-12l1-6.5zm63 0h7.5l.5.5V128h17v8h-25V85zM31.5 146h160l9 3 5.5 5.5 3 9v27l-3 9-5.5 5.5-9 3h-160l-9-3-5.5-5.5-3-9v-27l3-9 5.5-5.5 9-3z"/><path fill="#6A6A6A" stroke="#6A6A6A" d="M36.5 0l1.5.5-1.5.5V0zm147 0l2.5.5-2.5.5V0zm-152 1v1-1zm159 0v1-1zm-163 1v1-1zm167 0v1-1zm-170 1v1-1zm173 0l1.5.5-1.5.5V3zm-176 1l1.5.5L20.5 6l1-2zm179 0l2.5 1.5-1.5-.5-1-1zm-182 2v1-1zm186 0l1 2-1-2zm-177 1l168.5.5L27.5 8V7zm-3 1l1.5.5-1.5.5V8zm173 0l1.5.5-1.5.5V8zm-175 1l-1 2 1-2zm178 0l1 2-1-2zm-181 2l-2 3 2-3zm184 0l2 3-2-3zm6 0l1 2-1-2zm-200 4l-1 2 1-2zm7 0l-1 2 1-2zm190 0l1 2-1-2zm6 0v1-1zm-198 3l.5 1.5h-1l.5-1.5zm194 0l.5 1.5h-1l.5-1.5zm6 0v1-1zm-208 1v1-1zm7 2l.5 35.5h-1l.5-35.5zm196 0l.5 35.5h-1l.5-35.5zm-206 4v1-1zm215 1v1-1zm-216 1v1-1zm-1 4v1-1zm219 1v1-1zM.5 36l.5 1.5H0L.5 36zm221 3l.5 142.5h-1l.5-142.5zm-207 19l.5 1.5h-1l.5-1.5zm194 0l.5 1.5h-1l.5-1.5zm-193 3l1 2-1-2zm192 0l-1 2 1-2zm-190 3l2 3-2-3zm188 0l-2 3 2-3zm-184 3l1 2-1-2zm180 0l-1 2 1-2zm-177 2l1.5.5-1.5.5v-1zm173 0l1.5.5-1.5.5v-1zm-170 1l168.5.5-168.5.5v-1zm-2 15v1-1zm34 0l.5 24.5-1.5 1.5H34l.5-25 .5 24h24l.5-25zm8.5 0l2 .5v8l-1 1-.5 42.5-.5-52zm47.5 0v1-1zm51 0v1-1zm12 0l.5 50.5h-1l.5-50.5zm-51 2v1-1zm27 0v1-1zm-26 2v1-1zm25 0v1-1zm-24 3v1-1zm23 0v1-1zm-68 2l.5 41.5h-1l.5-41.5zm30 0l.5 3.5h-1l.5-3.5zm37 0v1-1zm16 0l.5 4.5h-1l.5-4.5zm-36 3v1-1zm19 0v1-1zm-1 2v1-1zm9 1l.5 1.5-2 1 1.5-2.5zm-25 2v1-1zm-9 2v1-1zm23 0v1-1zm-13 1v1-1zm-21 2l.5 3.5h-1l.5-3.5zm42 0v1-1zm-33 2l.5 4.5h-1l.5-4.5zm23 0v1-1zm23 0l.5 3.5h-1l.5-3.5zm-32 1v1-1zm-9 2v1-1zm26 0v1-1zm-16 1v1-1zm6 1v1-1zm-15 1v1-1zm31 1l.5 3.5h-1l.5-3.5zm-17 1v1-1zm9 0v1-1zm-92 3l.5 16.5h-1l.5-16.5zm53 0l.5 3.5h-1l.5-3.5zm18 0v1-1zm11 0v1-1zm-107 1l.5 14.5h-1l.5-14.5zm106 1v1-1zm9 0v1-1zm-18 1v1-1zm38 1l.5 3.5h-1l.5-3.5zm-48 1l.5 3.5h-1l.5-3.5zm26 2v1-1zm41 0l15.5.5-15.5.5v-1zm-55 1v1-1zm1 3v1-1zm26 0l.5 4.5h-1l.5-4.5zm-15 1v1-1zm-34 1l.5 3.5h-1l.5-3.5zm-86 3v1-1zm111 0v1-1zm68 0v1-1zm-177 9l168.5.5-168.5.5v-1zm-3 1l1.5.5-1.5.5v-1zm173 0l1.5.5-1.5.5v-1zm-175 1l-1 2 1-2zm178 0l1 2-1-2zm-181 2l-2 3 2-3zm184 0l2 3-2-3zm-187 4l-1 2 1-2zm190 0l1 2-1-2zm-192 3l.5 1.5h-1l.5-1.5zm194 0l.5 1.5h-1l.5-1.5zm-195 3l.5 35.5h-1l.5-35.5zm196 0l.5 35.5h-1l.5-35.5zM.5 183l.5 2.5H0l.5-2.5zm220 5v1-1zm-219 2v1-1zm218 2v1-1zm-217 1v1-1zm216 2v1-1zm-215 1v1-1zm11 0l.5 1.5h-1l.5-1.5zm194 0l.5 1.5h-1l.5-1.5zm9 1v1-1zm-213 1v1-1zm11 1l1 2-1-2zm192 0l-1 2 1-2zm9 0v1-1zm-211 1v1-1zm210 1v1-1zm-198 1l2 3-2-3zm188 0l-2 3 2-3zm-198 1v1-1zm206 1v1-1zm-192 1l1 2-1-2zm180 0l-1 2 1-2zm-191 2l4 5-4-5zm14 0l1.5.5-1.5.5v-1zm173 0l1.5.5-1.5.5v-1zm-170 1l168.5.5-168.5.5v-1zm177 5v1-1zm-186 1v1-1zm183 1v1-1zm-2 1v1-1zm-2 1v1-1zm-171 1v1-1zm169 0v1-1zm-3 1v1-1zm-160 1v1-1zm156 0v1-1zm-149 1l142.5.5-142.5.5v-1z"/><path stroke="#000" d="M32.5 1h8l1 1h139q1.7-2.8 8-1l14 5 6.5 5.5q9 8.5 12 23v152q-3.3 16.7-14.5 25.5-7.6 6.9-20 9h-152Q16.7 217.3 8 204.5l-5-9-3-15 2 1q-.9 8.4 2 13Q7.5 204 14.5 210q8 7.5 21 10h150q13.7-2.3 21.5-10.5l-1.5-.5-10 5h-168q-9.4-2.1-14.5-8.5l-5-11v-35q2.1-9.4 8.5-14.5l11-5h168q9.4 2.1 14.5 8.5l5 11v35l-3 8 2-1q4.5-6.5 6-16v-150L215.5 23l-.5 33.5q-2.1 9.4-8.5 14.5l-7 4-11 3h-158Q18.7 75.8 13 67.5l-5-11L7.5 21q-6 7-6 20L1 32.5Q4.5 19 13.5 11q7.4-7.1 19-10zM25 7l-4 2-8 10v41l2 4 10 7h174l4-2 7-9V19l-2-4-9-8H25zM9 19l-1 2h1v-2zm16 126l-4 2-8 10v41l2 4 10 7h174l4-2 7-9v-41l-2-4-9-8H25zm187 58l-2 3 2-1v-2zm-2 3v1-1zm-1 1v1-1zm-1 1v1-1z"/><path stroke="#000" d="M26.5 83q7.7-1.8 9.5 2.5V109h22V85.5l2.5-2.5 9 1 1-1h39l1.5 1.5v10l-1.5 1.5H96v40.5l-2.5 2.5q-8.5 2-10.5-2.5v-40l-.5-.5H70v40.5l-2.5 2.5q-7.8 1.8-9.5-2.5V121H36v15.5l-2.5 2.5q-7.7 1.8-9.5-2.5v-51l2.5-2.5zM25 85v52h10v-17h24v17h10V94h15v43h10l1-1V95l1-1h14v-9H59v25H35V85H25zm91.5-2h10l1.5 1.5 12.5 32.5L152 88.5l3.5-5.5h10l2.5 2.5 1 19 1 1v14l1 1v13l1 3q-2 4.5-10.5 2.5l-2.5-2.5-1.5-29.5-10.5 26.5-3.5 4.5q-7.7 1.8-9.5-2.5l-9.5-27.5-.5 9.5-1 1v14l-1 4-2.5 2.5q-7.8 1.8-9.5-2.5l2-32 1-1v-12q2.3-1.2 1-6l2.5-2.5zm-1.5 2l-1 21-1 1v12l-1 1v12l-1 1v4h10l3-35 12 34 1 1h7l14-34 1 3 1 30 2 1h8l-2-43-1-1v-8h-12l-14 36-14-34v-2h-12zm64.5-2h8l1.5 1.5V126h15.5l1.5 1.5v9l-1.5 1.5h-26l-1.5-1.5v-51l2.5-2.5zm.5 1l-2 2v51h27v-10h-17V86q-2-4-8-2z"/><path fill="#ABABAB" stroke="#ABABAB" d="M34.5 0l1.5.5-1.5.5V0zm152 0l1.5.5-1.5.5V0zm-156 1v1-1zm161 0v1-1zm-165 1v1-1zm169 0l1.5.5-1.5.5V2zm-172 1v1-1zm176 0v1-1zm-180 2v1-1zm184 0v1-1zm-186 1l-6 7 6-7zm188 0l5 6-5-6zm-179 2l1.5.5-1.5.5V8zm169 0l1.5.5-1.5.5V8zm-172 1v1-1zm176 0v1-1zm-179 2l-3 4 3-4zm182 0l3 4-3-4zm9 2v1-1zm2 3v1-1zm-206 1v1-1zm8 0v1-1zm192 0v1-1zm-193 3l.5 1.5h-1l.5-1.5zm194 0l.5 1.5h-1l.5-1.5zm8 1v1-1zm-212 1v1-1zm213 1v1-1zm-214 1v1-1zm215 1v1-1zm1 3v1-1zm-218 2v1-1zm219 1v1-1zM.5 34l.5 1.5H0L.5 34zm221 3l.5 1.5h-1l.5-1.5zm-207 19l.5 1.5h-1l.5-1.5zm194 0l.5 1.5h-1l.5-1.5zm-193 4v1-1zm192 0v1-1zm-190 3l3 4-3-4zm188 0l-3 4 3-4zm-182 5v1-1zm176 0v1-1zm-173 1l1.5.5-1.5.5v-1zm169 0l1.5.5-1.5.5v-1zm-69 16v1-1zm29 0v1-1zm32 0v1-1zm-162 1l.5 49.5h-1l.5-49.5zm90 0l.5 1.5h-1l.5-1.5zm51 0l.5 1.5h-1l.5-1.5zm-38 4v1-1zm25 0v1-1zm-23 5v1-1zm21 0v1-1zm-37 3l.5 2.5h-1l.5-2.5zm44 1v1-1zm9 0l.5 2.5h-1l.5-2.5zm-44 1v1-1zm9 0v1-1zm17 0v1-1zm8 1v1-1zm-9 1v1-1zm-24 1v1-1zm9 0v1-1zm23 1v1-1zm-34 1l.5 3.5h-1l.5-3.5zm3 1v1-1zm21 1v1-1zm-11 1v1-1zm-9 1v1-1zm28 0v1-1zm-95 1v1-1zm54 1l.5 2.5h-1l.5-2.5zm31 1v1-1zm15 0l.5 3.5h-1l.5-3.5zm9 1l.5 3.5h-1l.5-3.5zm-40 1v1-1zm24 0v1-1zm-9 1v1-1zm-5 1v1-1zm-9 1v1-1zm13 1v1-1zm-108 1l24.5.5-24.5.5v-1zm105 0v1-1zm11 0v1-1zm-29 2l.5 3.5h-1l.5-3.5zm20 0v1-1zm-10 1v1-1zm-19 2l.5 2.5h-1l.5-2.5zm36 0v1-1zm-16 1v1-1zm28 3l.5 2.5h-1l.5-2.5zm9 0l.5 2.5h-1l.5-2.5zm-23 1v1-1zm-12 1v1-1zm1 3v1-1zm9 1v1-1zm-24 2v1-1zm23 0v1-1zm-117 10l1.5.5-1.5.5v-1zm169 0l1.5.5-1.5.5v-1zm-172 1v1-1zm176 0v1-1zm-179 2l-3 4 3-4zm182 0l3 4-3-4zm-187 6v1-1zm192 0v1-1zm-193 3l.5 1.5h-1l.5-1.5zm194 0l.5 1.5h-1l.5-1.5zm13 24l.5 2.5h-1l.5-2.5zm-221 4l.5 1.5H0l.5-1.5zm220 3v1-1zm-219 2v1-1zm218 2v1-1zm-217 1v1-1zm12 0l.5 1.5h-1l.5-1.5zm194 0l.5 1.5h-1l.5-1.5zm-193 4v1-1zm192 0v1-1zm-190 3l3 4-3-4zm188 0l-3 4 3-4zm-199 1v1-1zm208 1v1-1zm-205 3v1-1zm14 0v1-1zm176 0v1-1zm-173 1l1.5.5-1.5.5v-1zm169 0l1.5.5-1.5.5v-1zm15 1l-2 3 2-3zm-195 4v1-1zm188 2v1-1zm-182 2v1-1zm2 1v1-1zm2 1v1-1zm3 1v1-1zm165 0v1-1zm-162 1v1-1zm158 0v1-1zm-152 1l1.5.5-1.5.5v-1zm145 0l2.5.5-2.5.5v-1z"/><path fill="#010101" stroke="#010101" d="M38.5 0L183 .5 180.5 2h-139l-3-1V0zm151 1v1-1zm-161 1v1-1zm165 0v1-1zm-168 1v1-1zm171 0v1-1zm-173 1v1-1zm175 0l1.5.5-1.5.5V4zm-177 1v1-1zm180 0v1-1zm-182 1v1-1zm184 0l1 2-1-2zm-186 1l-3 4 3-4zm7 0l2.5.5q-6.6 1.4-10 6L13.5 21l-.5-2.5L20.5 9l4-2zm172 0q8.1 1.4 11.5 7.5l2 6h-1q-.9-6.6-5.5-9.5l-7-3V7zm10 1l2 3-2-3zm3 4l2 3-2-3zm-199 2v1-1zm203 3v1-1z"/><path fill="#010101" stroke="#010101" d="M8.5 19l.5 1.5-1 1v35q2.4 10.1 9.5 15.5 4.8 4.7 13 6h158l11-3 10.5-7.5 5-11 .5-33.5 1 2 1.5-.5-1 3 3 8v150q-1.9 11.6-8 19l.5 1.5-1-1-6.5 6.5.5 1.5-2-1-10 6-8 2h-150l-10-3-1.5.5.5-1.5-3-1-1.5.5q2.3-1.2-.5-2.5l-2 1q1.7-2-2-4l-4.5-3.5q-6.3-6.7-8.5-17.5l-1.5.5q2.8-1.7 1-8H1L.5 183l-.5-1.5v-2L.5 38l1 3L3 29.5 2.5 28l1.5.5 1-4-.5-1.5 1.5.5-1-2 3-1 .5-1.5zM27 83l-3 3v51q2 4 10 2 2-1 0-2h2v-16h22v16q2 4 10 2l2-2V96h13v41l2-1-1 2 2 1h8l2-2V96h14l1-1V85l-1-2H71l-1 1-9-1-3 3v23H36V86h-1v-1q-2-4-8-2zm90 0l-3 3q1 4-1 6v12l-1 1-2 32q2 4 10 2l2-2 1-4 1-24 2-1-1 3 2-1-1 2 2 7 2-1-1 2 2 7 2-1-1 2 2 8q2 4 10 2 2-1 0-2h2l1-2-1-3h2l1-2-1-3h2l1-2-1-3h2l1-2-1-3h2l1-2-1-3h2l2-4 1 30 3 2q8 2 10-2l-1-3v-13l-1-1v-14l-1-1-1-19-2-3h-10l-8 16 1 3-1-1-2 3 1 3-1-1-2 3 1 3-1-1-3 6-1-1h-2l1-3h-1v-1l-1-4h-1v-1l-2-7h-1v-1l-1-4h-1v-1l-3-9-1-2h-10zm63 0v1h7v1q-7 2-8-1l-2 2v51l2-1-1 2h27l1-1v-9h-1v-2h-16V85l-1-2h-8zM28 140l-11 5q-7 5-9 15v35l5 11q5 6 15 8h168l11-5q6-5 8-14v-35l-5-11q-5-7-14-9H28zM215.5 20v1-1zm4 9v1-1zm1 4v1-1z"/><path fill="#010101" stroke="#010101" d="M13.5 57q1.4 6.6 6 10l7.5 3.5-2.5.5-9.5-7.5Q12 61 13.5 57zm196 0l.5 2.5-7.5 9.5-6 2v-1q6.6-.9 9.5-5.5l3.5-7.5zm-95 36v1-1zm53 0v1-1zm-73 1l.5 41.5h-1l.5-41.5zm29 7v1-1zm35 1l.5 2.5h-1l.5-2.5zm-2 3v1-1zm-43 1v1-1zm55 2v1-1zm-46 6l.5 1.5h-1l.5-1.5zm17 4v1-1zm-27 1v1-1zm-78 1v1-1zm125 0l.5 1.5h-1l.5-1.5zm-19 1v1-1zm29 1l.5 1.5h-1l.5-1.5zm-48 7l.5 1.5h-1l.5-1.5zm-10 3v1-1zm24 2v1-1zm-111 11l2.5.5q-6.6 1.4-10 6l-3.5 7.5-.5-2.5 7.5-9.5 4-2zm172 0q8.1 1.4 11.5 7.5l2 6h-1q-.9-6.6-5.5-9.5l-7-3v-1zm24 42v1-1zm-207 8q1.4 6.6 6 10l7.5 3.5-2.5.5-9.5-7.5q-3-2.5-1.5-6.5zm196 0l.5 2.5-7.5 9.5-6 2v-1q6.6-.9 9.5-5.5l3.5-7.5zm-180 24v1-1zm4 1v1-1zm154 0v1-1z"/><path fill="#E0E0E0" stroke="#E0E0E0" d="M33.5 0v1-1zm-4 1v1-1zm-4 1v1-1zm172 0v1-1zm-175 1v1-1zm178 0v1-1zm-180 1v1-1zm182 0v1-1zm-184 1v1-1zm186 0v1-1zm-189 2l-2 3 2-3zm192 0l2 3-2-3zm-179 1v1-1zm166 0v1-1zm-170 1v1-1zm174 0v1-1zm-176 1v1-1zm178 0v1-1zm11 2v1-1zm-201 1v1-1zm202 1v1-1zm-196 2v1-1zm190 0v1-1zm-191 2v1-1zm192 0v1-1zm8 1v1-1zm-210 1v1-1zm9 2v1-1zm194 0v1-1zm-206 4v1-1zm217 1v1-1zm-218 2v1-1zm-1 4v1-1zm221 2l.5 1.5h-1l.5-1.5zm-207 20v1-1zm194 0v1-1zm-193 4v1-1zm192 0v1-1zm-191 2v1-1zm190 0v1-1zm-184 6v1-1zm178 0v1-1zm-176 1v1-1zm174 0v1-1zm-170 1v1-1zm166 0v1-1zm-85 16v1-1zm78 1l.5 41.5h-1l.5-41.5zm-72 2l.5 1.5h-1l.5-1.5zm12 0v1-1zm27 0v1-1zm12 0l.5 1.5h-1l.5-1.5zm-57 5v1-1zm20 0v1-1zm23 0v1-1zm-21 5v1-1zm-8 1v1-1zm-9 2l.5 1.5h-1l.5-1.5zm8 0l.5 3.5h-1l.5-3.5zm45 1l.5 2.5h-1l.5-2.5zm-11 1v1-1zm-9 2v1-1zm-13 1v1-1zm21 0v1-1zm-29 2v1-1zm33 0l.5 3.5h-1l.5-3.5zm-14 2v1-1zm-18 1v1-1zm9 0v1-1zm17 0v1-1zm-9 2v1-1zm-31 1l.5 1.5h-1l.5-1.5zm24 0v1-1zm14 2v1-1zm-13 1v1-1zm30 0l.5 1.5h-1l.5-1.5zm-109 2v1-1zm62 0l.5 1.5h-1l.5-1.5zm9 0v1-1zm9 1v1-1zm10 1v1-1zm11 4l.5 2.5h-1l.5-2.5zm-13 1v1-1zm-35 1l.5 1.5h-1l.5-1.5zm21 0v1-1zm71 1l.5 7.5-1.5 1.5h-24v-1h24l.5-.5.5-7.5zm-59 3v1-1zm24 0l.5 2.5h-1l.5-2.5zm-49 2l.5 2.5h-1l.5-2.5zm16 2l6.5 1.5-5.5.5-1-2zm33 1v1-1zm-141 10v1-1zm166 0v1-1zm-170 1v1-1zm174 0v1-1zm-176 1v1-1zm178 0v1-1zm-184 6v1-1zm190 0v1-1zm-191 2v1-1zm192 0v1-1zm-193 4v1-1zm194 0v1-1zm13 25v1-1zm-1 5v1-1zm-206 3v1-1zm194 0v1-1zm10 3v1-1zm-215 1v1-1zm12 0v1-1zm192 0v1-1zm10 1v1-1zm-213 1v1-1zm12 0v1-1zm190 0v1-1zm10 1v1-1zm-208 5v1-1zm14 0v1-1zm178 0v1-1zm-176 1v1-1zm174 0v1-1zm-170 1v1-1zm166 0v1-1zm17 0v1-1zm-4 4v1-1zm-191 2v1-1zm3 2v1-1zm181 1v1-1zm-2 1v1-1zm-2 1v1-1zm-169 1v1-1zm163 1v1-1zm-155 1l1.5.5-1.5.5v-1zm150 0v1-1z"/></svg>