<svg xmlns="http://www.w3.org/2000/svg" width="575" height="595"><path fill="#E1DFDF" stroke="#E1DFDF" d="M151.5 186l2.5 1 .5 2h55l4-2v1l-4 2h-55l-3.5-2-.5 7-.5-7.5 1.5-1.5zm158 1l4 2h54q1.3-3 5.5-2v19.5l-1.5 1.5-4-3H351v38.5l1.5 1.5q2.6-.8 1.5 2.5l-1.5 1.5h-23l-1.5-4 3-1.5V205h-17.5l-1.5 3-4-1.5v-18l1.5-1.5zm-.5 1v17l2 1 3-2h18v41h-1q-3 2 0 3h21l1-1-1-1-2-1v-41h19l2 2h1v-18l-3 2h-55q-2-3-5-2zm-206.5 0h15l13 3h7l2.5-1q1.3 3-2.5 2l-4 1-10-3-16-1q-1.7 2.8-8 1l-8 3-8.5 7.5-.5 1.5-.5-1.5 3.5-4.5q6.6-5.9 17-8zm354 0l18 1 13 4 3-1 1.5 3.5-9.5 17.5-3.5-1.5-1.5-3.5-9-3h-11q-8.5 1.5-12.5 7.5l-2 8q1.3 5.8 5.5 8.5 6 5.5 19 4l12.5-5 .5-2 .5 1.5q-7 9-25.5 6.5l-10.5-6.5q-3.8-3.2-3-11l4.5-7.5q6.8-7.2 23-5l10.5 4.5 1.5 3.5 2.5-2.5 7-16.5-5.5 1-12-4-14-1q-1.8 2.8-8 1l-9 3q-8.1 2.9-12.5 9.5l-5 9v15q3.5 10 11.5 15.5l12 5q4.8-1.3 6 1h17l20-7 3.5 1v-2.5L483.5 224l-2 1-.5-1.5 2.5-1.5 12.5 16.5v4.5l-4.5-1-18 7h-21l-17-6-5.5-5.5-6-10-1-11q2.3-13.7 11.5-20.5l15-7q5.5 1.5 7-1zm-209 1h27l.5 3.5-1 2 7 15h-1l-7-16 1-3.5h-25.5l-1.5 1.5 1 4-20 46-4 6.5h18.5l.5-1.5-1-3 4.5-7.5h28l1.5 1.5 3 7q-3.7 1.8-.5 3.5h19l1.5-1.5-3-3-15-32 2 1 8 19 7.5 13.5q2.6-.8 1.5 2.5l-1.5 1.5h-21l-1.5-3.5 1-3-2-5.5h-28.5l-.5 1.5-3 6 1 3-1.5 1.5H223v-3.5l3-3 5-10 16-39-1-3 1.5-1.5zm137.5 0h26.5l1.5 1.5-1.5 2.5-2.5 1.5v49l1.5 1.5 2.5 1.5-1.5 2.5h-26l-.5-1.5q-2.2-1.3.5-2.5l2.5-1.5v-49l-1.5-1.5-2.5-1.5 1-2.5zm3 1l-2 2 3 1 1 2v49l-3 2 1 2h23v-1l-3-2-1-2v-47l1-3 3-1v-2h-23zm-248.5 4v1-1zm-1 2v1-1zm12 0v1-1zm-13 2l.5 1.5-5.5 9.5q-3.3 1.1-2.5-1.5l-5-3 2.5-.5 2.5 1 1.5 3q2.6.8 1.5-2.5l4.5-7.5zm13 0l.5 8 3.5-2H173v40.5l-2 3.5h21.5l1.5-1.5-3-1.5v-41h19.5l3.5 2q1.1 2.7-1.5 2l-3-3H192v38.5l1.5 1.5q2.6-.8 1.5 2.5l-1.5 1.5h-23l-1.5-2.5 3-3V205h-17.5l-1.5 1.5q.8 2.3-1.5 1.5l-1.5-1.5.5-8.5zm-46 4l15.5.5-15.5.5v-1zm-23 1l.5 1.5h-1l.5-1.5zm20 0l1.5.5-4 3 1.5 2.5 8 2h8l11 2 11.5 7.5 1 3h-1l-1-3.5-8.5-5-7-2-20-2-4.5-2.5q-.7-3.7 1.5-4.5l2-1zm20 0l2.5.5-2.5.5v-1z"/><path fill="#E1DFDF" stroke="#E1DFDF" d="M260.5 205l9.5 20.5-1.5 1.5h-17q-2.8-1.2-.5-2.5l4.5-9.5.5 1.5-4 8 16 .5-7-17q-2.7-1.1-2 1.5l-2.5 4.5-.5-1.5 4.5-7.5zm-180 1l1.5 8.5h-1q-2.3-2.9-.5-8.5zm2 10q5.3 7.2 16.5 8.5l-3.5.5-12.5-6-.5-3zm18 9l6.5.5-6.5.5v-1zm40 0l.5 2.5h-1l.5-2.5zm-32 1l6.5.5-6.5.5v-1zm-24 1q3.3-1.1 2.5 1.5l-1.5-.5q-2.2-.7-1.5 1.5h-1l1.5-2.5zm33 0l5.5 2.5q.8 4.8-2.5 5.5l-2 1h-17l-12-3-2.5-2.5 1.5.5 14 4h15l4.5-2v-4h-1.5l-3-1v-1zm23 3l.5 3.5h-1l.5-3.5zm-58 1l.5 2.5h-1l.5-2.5zm-1 4l.5 2.5-2 7.5 5.5-1v1l-6.5 1q-.7-6.7 2.5-11zm58 0l.5 1.5-4.5 6.5-2 1 4.5-5.5 1.5-3.5zm-8 9l-1 2-9 3h-22l-8.5-2.5 3.5-.5 7 2h19l11-4zm-44 1l2.5.5-2.5.5v-1zm-49 78h16l13 4h5q1.3-2.2 2.5.5l-1.5 5.5-.5-1.5 1-3.5h-6.5l-10-3-17-1-13 3q-8.3 3.2-13.5 9.5Q9 341 8.5 350l-.5-4.5q3.5-10 11.5-15.5l7-4 12-3zm77 0q27.1-1.6 37.5 13.5l3 6h-1l-1-3-9.5-9.5q-9.4-6.6-26-6-1.5 2.5-7 1l-12 5-7.5 7.5-1.5 2.5-.5-1.5 3-4.5 9.5-7 13-4zm412 0h17l12 3h6l2-1 1.5 3.5-6 13-2.5 2.5-2.5-1.5q.8-2.2-1.5-1.5l-7-3-12-1q-1.3 2.2-6 1l-3.5 2.5q-1.1 3.3 1.5 2.5l5 2 19 2q9.4 2.1 14.5 8.5 2.9 3.6 2 11l-4 9.5-13.5 7-5 1h-15l-1-1-12-1-4-2h-5l-3.5 1 1.5-8 .5 2.5-1 4 1.5-.5 3-1 14 4 20 1 11-3 8.5-6.5 2-4 1-7-3-8.5-9.5-5-15-3h-7l-7.5-2-1-2.5 2.5-3.5 7-2h8l13 3 2.5 2.5.5 1.5 2.5-2.5 6-13q-1.2-2.7-2.5-.5h-7l-15-3h-10l-10 2-6 3-6.5 6.5-1.5 4.5-.5-2.5 6.5-8.5q6-4.5 15-6zm-358 1h24l1.5 1.5-1.5 2.5-2.5 1.5V367h34.5l4.5-3 1 2.5v17h-1v-17l-1.5-.5-2 2H190v-38.5l1-2.5q3 1 2-2h-22.5l-.5 2q2.7-1.1 2 1.5l1 1v48l-3.5 4.5h55l5.5 3.5-3 .5-.5-2h-56l-2.5-1 1.5-4 2.5-1.5v-48l-1.5-1.5-2.5-1.5 1.5-2.5zm74 0h23l.5 3.5-2 1 1-3.5h-22.5l-.5 2 4 1.5v34q1.8 9.7 8.5 14.5l11 5 16 1 14-4 7.5-6.5 2.5-5.5.5 1.5-4.5 7.5q-10.3 10.2-33 8l-12-4-6.5-5.5-5-11v-34l-1.5-1.5-2.5-1.5 1.5-2.5z"/><path fill="#E1DFDF" stroke="#E1DFDF" d="M288.5 324h23l1.5 1.5-1.5 2.5-2.5 1.5-.5 29.5-.5-30.5 3-1.5-.5-2h-21q-3.2 1.8.5 3.5v34l-2 4.5q-4.9 3.3-15.5 2l-6.5-3.5-1-4h1q-.5 5 3.5 5.5 4.8 2.3 13 1l5.5-3.5 1-2v-34l-2-3 1.5-1.5zm42 0h28l1.5 1.5-2 4 5 10h-1q-4.2-4.3-5-12l1-2.5h-26.5l-.5 1.5 2 2v50l-2 3.5 20-.5-2.5-3.5 3.5 2.5-2.5 3.5h-18l-2.5-2.5 1.5-2.5 1.5-.5v-49l-3-4 1.5-1.5z"/><path fill="#E1DFDF" stroke="#E1DFDF" d="M375.5 324h28l1.5 1.5-3 4v48q3.7 1.3 3 5.5l-2.5 1h-19l-2.5-1v-4h1.5l1.5-1.5v-29l-2 1-4 10-11.5 19.5-2.5-1.5-16-33h1l16 33.5q2.7 1.1 2-1.5l17.5-32.5.5 34.5-3 1.5.5 2h21l-2.5-3.5v-50l2-3.5h-26.5l-.5 1.5 1 4-9 17.5-3-1.5-2-5h1l2.5 4.5q6.6-6.9 9.5-17.5l-2-3 1.5-1.5zm46 0h31l1.5 1.5-2 4 19.5 21.5.5-21.5-4-3 1.5-2.5h23l.5 4-3 1.5v49l3 .5v4l-2.5 1h-21l-2.5-1 1.5-4q2.3.8 1.5-1.5L442.5 348l-.5 31q4.9-1.6 3 4l-2.5 1h-19l-2.5-1q-1.2-5.3 2-4.5V328l-3-1.5 1.5-2.5zm.5 1l3 5v48l-3 4h22v-2l-3-1 1-34 29 32v3q-3-1-2 2h23v-2l-3-1v-50l2-2q2 1 1-2h-21l-1 2 3 2v23h-1l-21-22q-2-2 1-3v-2h-30zm-349.5 9v1-1zm-1 2l.5 1.5-6.5 10.5q-2.2.8-1.5-1.5l-1-3.5-17.5-4-9 2-8.5 6.5q-2.3 3.2-1 10l5.5 6.5q5.6 4.4 16 4l8-2 8-5-2 3q-6.5 5.5-19 5l-10-3-7.5-7.5-1-6 1-4 3.5-4.5q6.2-6.3 19-6l12 3 3.5 2.5q-1.1 3.3 1.5 2.5l6-10zm48 2l10 1 8.5 6.5q2.9 3.6 2 11l-4.5 7.5-6 4-9 1-9-3-5.5-5.5.5-1.5 4 5 5 3 9 1q9.3-1.7 13.5-8.5l1-9-2-5.5-6.5-4-9-2-11 4-3.5 3.5-.5 1.5-.5-1.5q4.4-6.6 13.5-8.5z"/><path fill="#E1DFDF" stroke="#E1DFDF" d="M89.5 341l.5 1.5-2 3v16q3.5 10 11.5 15.5l13 5 15 1q14.2-2.3 22.5-10.5l5.5-8.5.5 1.5-9.5 11.5q-10.5 8.5-31 7-14.4-2.6-22.5-11.5l-6-11-1-10q2.3-1.2 1-6l2.5-4.5zm416 0l.5 4.5h-1l.5-4.5zm-349 3l.5 3.5h-1l.5-3.5zm350 4l1.5 4 11.5 6 19 2 9.5 3.5q1 4.5-1.5 5.5l-7 2h-5v-1h5l7.5-2q1-3.8-1.5-5l-8-2-19-2q-7.4-2.1-11.5-7.5l-.5-3.5z"/><path fill="#E1DFDF" stroke="#E1DFDF" d="M105.5 349l.5 1.5h-1l.5-1.5zm52 0l.5 8.5h-1l.5-8.5zm-52 7l.5 1.5h-1l.5-1.5zM65 357q3.8-.7 5 2.5l3 5-2-1-4.5-5.5-1.5.5V357zm-56.5 1l.5 2.5H8l.5-2.5zm148 1l.5 2.5h-1l.5-2.5zm353 2l3.5 1q-1.5 3.8 1.5 3l6 3 12.5 1.5-7.5.5-9-2-4.5-3.5q.7-3-3-1.5l-1.5 5-.5-2.5 2.5-4.5zm-500 1l1.5 4.5 8.5 9.5q11.8 8.2 33 7l9-2 12-5H79l-6-9.5 2 1 5 8-20.5 7.5-21 1-12-3-11.5-7.5-6-9 .5-2.5zm298 0l.5 3.5h-1l.5-3.5zm199 7l.5 2.5h-1l.5-2.5zm-247 76l1.5.5-1.5.5v-1zm6 0v1-1zm-8 1l-2 3 2-3zm10 0l1 2-1-2zm13 0l4.5.5-4.5.5v-1zm-2 1v1-1zm12 0l4.5 3.5 1 2-2-1-2.5-3.5-1-1zm-21 2v1-1zm-16 1l-2 3 2-3zm22 0l.5 1.5h-1l.5-1.5zm-5 3v1-1zm26 1l11 12-11-12zm-48 2l-.5 1.5-1.5 2.5.5-1.5 1.5-2.5zm27 0l.5 1.5h-1l.5-1.5zm-5 1l.5 1.5h-1l.5-1.5zm6 3v1-1zm-57 1v1-1zm51 0l.5 1.5h-1l.5-1.5zm-27 1l-3 4 3-4zm34 0v1-1zm-8 2l-1 2 1-2zm-3 2v1-1zm43 0v1-1zm-27 1l3 4-3-4zm29 0l4 5-4-5zm-73 1l-2 3 2-3zm24 2l-2 3 2-3zm56 2v1-1zm2 1l4.5 3.5 2 3-3-2-2.5-3.5-1-1zm-61 1l-2 3 2-3zm11 0l6.5.5-6.5.5v-1zm-38 1l-2 3 2-3zm36 0l-1 2 1-2zm10 0v1-1zm2 1v1-1zm11 0l1 2-1-2zm-26 2l-1 2 1-2zm18 0l4 5-4-5zm-54 1l-1 2 1-2zm26 0l-2 3 2-3zm38 0v1-1zm-30 2l.5 1.5h-1l.5-1.5zm31 0l2 3-2-3zm33 0v1-1zm-100 1l-1 2 1-2zm25 1l-3 4 3-4zm36 1l.5 2.5h-1l.5-2.5zm10 0l1 2-1-2zm-73 1v1-1zm37 0l.5 6.5h-1l.5-6.5zm39 1v1-1zm-77 1v1-1zm103 0v1-1zm-80 2v1-1zm79 0l-2 3 2-3zm-38 1l.5 1.5h-1l.5-1.5zm11 0l-1 2 1-2zm-52 1l2 3-2-3zm-23 1v1-1zm39 1l1 2-1-2zm24 0l.5 1.5h-1l.5-1.5zm36 0l-1 2 1-2zm-27 1l-2 3 2-3zm-71 2v1-1zm26 0l9 10-9-10zm14 0l1 2-1-2zm21 0l-3 4 3-4zm35 0l-1 2 1-2zm-53 2l2 3-2-3zm25 0l-1 2 1-2zm-67 1l1.5 2.5-2-1 .5-1.5zm93 0l-1 2 1-2zm-38 1v1-1zm-8 1l6.5.5-6.5.5v-1zm18 0l-1 2 1-2zm26 1l-1 2 1-2zm-88 2l1 2-1-2zm59 1l-2 3 2-3zm27 0l-2 3 2-3zm-81 3l2 3-2-3zm29 1l1 2-1-2zm49 0l-6 7 6-7zm-28 1v1-1zm-45 2l3 4-3-4zm26 0l1 2-1-2zm18 0l-1 2 1-2zm-16 3l1 2-1-2zm13 1l-.5 1.5-.5 1.5-.5-1.5 1.5-1.5zm-36 1l15 15 2.5.5-2.5.5-15-16zm25 1v1-1zm35 0l-1 2 1-2zm-34 2v1-1zm9 2v1-1zm22 0l-2 3 2-3zm-31 1l.5 1.5h-1l.5-1.5zm10 1l1 2-1-2zm-10 2l.5 3.5h-1l.5-3.5zm13 0l2 3-2-3zm15 0l-1 2 1-2zm-11 3l3.5 2.5-1.5.5-2-3zm9 0l-2 3-1.5-.5 3.5-2.5zm-27 2l-1 2-1.5-.5 2.5-1.5z"/><path fill="#FEFEFE" stroke="#FEFEFE" d="M100.5 184l-1.5 2.5 1.5 1.5 3-2 2.5 1.5-1.5.5-2.5-1q1.3 3.3-3.5 2L84 197.5l-1.5 2.5.5-1.5 2-4.5 4-1.5.5-1.5q1.5 2.5 3-1l2.5-.5-.5-1.5 3 1-1.5-2.5 1.5-1.5q1.5 2.5 3-1zm-2.5 2v1-1zm1 1v1-1zm7.5-3v1-1zm44 0l2 1q1.3-2.2 2.5.5l-2.5 1.5q-1.2-2.2-2.5.5v19l2 3-1.5-.5-1.5-.5v-19l2-4-.5-1.5zm6 0v1-1z"/><path fill="#FEFEFE" stroke="#FEFEFE" d="M212.5 184q3-.8 1.5 3-3.4-.7-4.5 2h-55l1-2 1 1h19l3-1 5 1 3-1 5 1h17l.5-1.5h2l1.5-2.5zm42 0l1 2-2.5-.5 1.5-1.5zm111 0v4l7-3 1 2q-5-1-6 2h-54l-4-2-1.5 1.5v18l4 1.5 1.5-3H331v38.5l-3 1.5 1 3.5q-1.5 3-3 0-1.5-4.4 1.5-3.5v-2l2.5-.5V206h-17l-1.5 3q-4.4 1.5-3.5-1.5l-1-1v-19q1.3-3.5 6-2.5-1.8 5.3 5.5 3h42l2-1q1.3 2.3 2.5-.5-2.3-1.3.5-2.5zm21 0v1-1zm17 0q1.8 3.1 3.5 1.5l-1.5 1.5q-1.7-3.1-3.5-1.5l1.5-1.5zm39 0v1-1zm-349 1l1 2-1-2zm22 0v1-1zm44 0v1-1zm91 0l1.5.5-1.5.5v-1zm10 0v1-1zm11 0v1-1z"/><path fill="#FEFEFE" stroke="#FEFEFE" d="M318.5 185l1.5.5-1.5.5v-1zm42 0v1-1zm28 0l-1 2 1-2zm12 0v1-1zm44 0v1-1zm8 0l1 3 6-3v2l3.5.5-3.5.5h-2q-18.2 1.8-27.5 12.5l-5.5 10.5-.5-2.5 3.5-8.5 1.5.5q-.7-2.6 2-1.5v-2.5l-.5-1.5 3 1 8.5-5.5-.5-1.5 3 1 7.5-2.5q-2.2-1.2.5-2.5zm.5 1v1-1zm3.5-1v1-1zm15 0v1-1zm2 0q3.7 2 2 4l14 2 3.5-.5 1 5.5q-2.7-1.1-2 1.5h2l-3 1-6 15-2.5 2.5v-2l-4 1-1-3q-2.2 4.3-4.5-.5l3.5.5 1.5-1.5q.8-2.2-1.5-1.5-7.1-4.4-19.5-3.5l11.5-.5 5 1 5.5 3.5 1.5 3.5 3.5-1.5 8-18-3.5-1.5h-2l-18.5-3.5q4.6.6 6-2l-.5-1.5zm12.5 1v1-1zm-11 1v1-1zm10 0v1-1zm-9 25v1-1z"/><path fill="#FEFEFE" stroke="#FEFEFE" d="M485.5 185q3.5 2-1 4-3.5-2 1-4zm3 0v1-1zm-399 1v1-1zm45 0v1-1zm7 0v1-1zm4 0v1-1zm70 0v1-1zm32 0v1-1zm17 0v1-1zm15 0v1-1zm199 0l-1 2 1-2zm-386 1v1-1zm15 0l9.5.5-9.5.5v-1zm23 0v1-1zm130 0q1.5 2.5 7 1h2q5.4-.9 7.5 1.5l-2 5 2 2 4 11h-1l-6-14 1-4.5h-27.5l-1.5 1.5 1 5-14 30-2 7-5 10-3 3v3.5l-2.5 1 .5-1.5.5-4.5q1.8 2.8 3.5-1.5l3-6-.5-3.5 1.5.5-2-4 3 1-2-3q2.5 1.8 5-3l1-3-.5-1.5q2.3.8 1.5-1.5l4-7-.5-1.5q2.6.8 1.5-2.5l2-4-1-1 3-3 2-6-1-4 1.5-1.5h13l1-1zM243 202v1-1zm-11 25v1-1zm-1 1v1-1zm165.5-41l5 1q6.3 1.8 8-1l4.5 2.5q1.9 5.4-1.5 4.5v2q-1.3-2.2-2.5.5v46l1.5 1.5 2.5 1.5q1.5 4.4-1.5 3.5l.5-1.5-1.5-2.5-2.5-1.5v-49l1.5-1.5 2.5-1.5-1.5-2.5h-26l-.5 1.5h-1l.5-2.5h11l1-1zm14.5 7v1-1zm54.5-7l1.5.5-1.5.5v-1zm23 0v1-1zm3 0v1-1zm2 0v1-1zm-375 1h8q2.9 2.6 9 2 1.5-3.5 3-1l3.5 2.5-1 5.5q-2.7-1.1-2 1.5h-1q2.8-3 2-8.5-2.7 1.9-9.5 1l-6-2h-6v-1z"/><path fill="#FEFEFE" stroke="#FEFEFE" d="M133.5 188l1.5.5-1.5.5v-1zm240 0q2.8-.6 1.5 5.5v6l-1 3 1 4.5-2 .5.5 1.5-2 1-4-4H352v37.5l1.5.5v1l-2.5-1.5V205h16.5l4 3 1.5-1.5v-16l1-1-.5-1.5zm-133 1v1-1zm175 0v1-1zm-31 3l3.5 2.5v49l-1.5 1.5-2 1-.5-2 3-1.5-.5-48.5q-1.2 2.2-2.5-.5l.5-1.5zm46 0v1-1zm-6 1l1.5.5-1.5.5v-1zm-209 1v1-1zm-133 1v1-1z"/><path fill="#FEFEFE" stroke="#FEFEFE" d="M384.5 196l1.5.5-1.5.5v-1zm111 1v1-1zm-415 1v1-1zm57 2v1-1zm-57 1q2.3-.7 1.5 1.5-3 3-2 10l3 6h-1l-1.5-2.5-1.5-.5v-11l1.5-3.5zm.5 1v1-1zm59.5-1v1-1zm140 0v1-1zm2 0v1-1zm-146 1v1-1zm6 0l-1 2-1.5-.5 2.5-1.5zm3 0v1-1zm2 0v1-1zm-72 1v1-1zm28 0h17l9.5 4.5q-.8 2.6 2.5 1.5l2.5-5 3 1.5-3 2-1.5 2.5-5.5-1-1.5-3-4-1-1.5.5-.5-1.5-2.5 1.5.5-1.5q-4.7-1.2-6 1-1.5-2.5-7-1-1.5 3.5-3 1l-2.5 1.5 4.5 2.5 15 1 1 1h2l4 1q1.5-2.5 3 1 7.4 2.1 11.5 7.5l1 14-1 3.5-2-.5q3.3-3.7 2-12l-2-4 .5-1.5-12-7-11-2h-8l-9.5-3.5 2.5-3.5 2-1zm181 1v1-1z"/><path fill="#FEFEFE" stroke="#FEFEFE" d="M106.5 205l1.5.5-2.5 1.5 1-2zm3 0v1-1zm45 0H172v38.5l-3 4 .5 1.5q-3 .9-1.5-3.5l3-1.5v-35.5l-1-1 .5-1.5h-13l-1 1-2.5-1-.5 2-.5-1.5 1.5-1.5zm37.5 0h17.5l4.5 3.5-1.5 1.5-4-4H193v34.5l1.5 3.5 2.5-1.5-3.5 2.5-1.5-1.5V205zm23.5 1v1-1zm68 0v1-1zm2 0v1-1zm2 0v1-1zm166 0l2.5.5-8 4 2 1-4 .5-2 5.5v2l.5 1.5 1.5-.5-1 2 3.5 5.5 7.5 3.5-2.5.5-8.5-6.5-2-8q1.5-6.5 6.5-9.5l4-2zm37 0l.5 1.5h-1l.5-1.5zm-162 1v1-1zm-252 1v1-1zm182.5 0q2.7-1.1 2 1.5l3 4 4 11.5-3-.5 2-1-6-11q2.3-1.2-.5-2.5l-3 5-1.5-.5 3-6.5zm25.5 0v1-1zm-161 1v1-1zm157.5 0h2q-1.5 3.8 1.5 3l1.5 3.5 2 6h-1l-6-12.5zm4 4v1-1zm20.5-4v1-1zm148 0v1-1zm-257 1v1-1zm-65 1v1-1zm65 1v1-1zm39 0v1-1zm188 0l.5 3.5h-1l.5-3.5zm32 1v1-1zm-7 1v1-1zm-141 1v1-1zm-111 3v1-1zm284 0v1-1zm2 0v1-1zm-398 1l6.5 4.5-1.5-.5-5.5-2.5.5-1.5zm170 0v1-1zm-173 1l1 2-1-2zm115 0v1-1zm284 0h2l1.5.5q-4 2.3-4 7.5l-12.5 5h-10v-1h9l7.5-2-1-2.5 3 1-2-3 2.5 1.5 2.5-1.5 2-4-.5-1.5zm-227 1l.5 1.5h-1l.5-1.5zm170 0l.5 4.5h-1l.5-4.5zm24 0v1-1zm37 1q2.3-.7 1.5 1.5l12 16-1.5 4.5-.5-5.5-11.5-16.5zm-37 1v1-1zm-354 1l2.5 1.5-1.5-.5-1-1zm159 0l11.5.5-11.5.5v-1zm36 0v1-1zm204 0v1-1zM84 225l3 1.5-4 2-.5 2.5-.5-2.5 2-3.5zm13.5 0l3.5 1.5-1.5-.5q-3 .5-2-1zm195 0v1-1zm2 0v1-1zm126 0v1-1zm-328 1v1-1zm11 0l4.5.5-2 1 .5 1.5-2-1-1.5.5.5-2.5zm93 0v1-1zm93 0v1-1zm161 0v1-1zm3 0v1-1zm2 0v1-1zm9 0v1-1zm7 0l-1 2 1-2zm19 0l2.5 1.5-1.5-.5-1-1zm-394 1l.5 1.5h-1l.5-1.5zm2 0v1-1zm15 0l8.5 2v4h-1.5l-3 2H102q-1.2-3 2.5-2l1 1h10l5.5-2.5-2.5-2.5-4-1-2 1 1-2zm180 0l-1.5 2.5q-.7 2.3 1.5 1.5l.5 2.5 2 5h-1l-5-10 3.5-1.5zM87 228h2q-1.1 2.7 1.5 2l10.5 3.5-3.5.5-10.5-4.5V228zm13.5 0v1-1zm96 0v1-1zm226 0v1-1zm2 0l1.5 4.5 9.5 11.5 2-1v1l-1.5.5.5 1.5-6-7-1.5.5q.8-2.2-1.5-1.5 1.6-1.7-1.5-3.5l-1.5-6.5zm30 0v1-1zm41 0v1-1zm-388 2v1-1zm-27 2l1.5 2.5q-3.7 4.3-3 11.5l7.5-1 8.5 2.5-4.5.5-6-2-6 2q-2.2-.7-1.5-4.5l3-7v-2l.5-2.5zm145 1v1-1zm21 4h28l.5 2.5 2 5-1 3 .5 1.5-2.5-.5 2-6-2-4.5h-27.5v-1zm-172 1v1-1zm426 0v1-1zm-362 1l-.5 1.5-1.5 2.5.5-1.5 1.5-2.5zm107 0l.5 2.5-1 3 1.5 1.5 1.5.5-1.5.5-1.5-.5q1.1 3.3-1.5 2.5l.5-1.5-1-4 2.5-4.5zm-.5 4v1-1z"/><path fill="#FEFEFE" stroke="#FEFEFE" d="M197.5 240l2.5 1.5-1.5-.5-1-1zm99 0l4 5 1.5-.5-1 4.5-2-.5 1-3.5-3-1.5-.5-3.5zm115 0v1-1zm88 0v1-1zm-143 1v1-1zm-214 1l.5 1.5h-1l.5-1.5zm26 0l1.5.5-1.5.5v-1zm53 0v1-1zm82 0v1-1zm109 0v1-1zm79 0l1.5 2.5q-1.7 3.3-3.5-.5l-1.5-.5 1.5-.5 1.5.5.5-1.5zm.5 2v1-1zm-357.5-1l-.5 1.5q.8 2.6-2.5 1.5l-5 2v-1l8-4zm85 0v1-1zm54 0v1-1zm84 0l.5 1.5h-1l.5-1.5zm-282 1v1-1zm364 0l8.5 3.5-4.5.5-5.5-2.5 1.5-1.5zm47 0l1.5 2.5-1.5-.5-2 1q-1.5-2.5-3 1l-3.5-.5 8.5-3.5zm-213 1v1-1zm-77 1v1-1zm22 0v1-1zm105 0l-1 2 1-2zm92 0v1-1zm-343 1l1.5.5-1.5.5v-1zm312 0l.5 1.5h-1l.5-1.5zm107 0v1-1zm-395 1l2.5.5-2.5.5v-1zm26 0l2.5.5-2.5.5v-1zm72 0v1-1zm159 0l-1 2 1-2zm96 0l2.5.5-2.5.5v-1zm25 0l1.5.5-1.5.5v-1zm-374 1l1.5 1.5-.5 2.5-1.5-1.5.5-2.5zm7 0h10l1.5 1.5-1.5-.5h-10v-1zm19 0v1-1zm99 0l-1 2 1-2zm98 0v1-1zm23 0v1-1zm12 0v1-1zm97 0l14.5.5-14.5.5v-1zm-211 1v1-1zm56 0l1 2-2.5-.5 1.5-1.5zm110 0v1-1zm2 0l1 2-1-2zm3 0v1-1zm-319 1v1-1zm13 0q3 1.5 0 3l-2.5-1.5 1.5.5 1.5-.5-.5-1.5zm6 0l1 4q-4.5-2-1-4zm55 0v1-1zm26 0v1-1zm133 0l2.5.5q-3.1 1.8-1.5 3.5l-3.5-2.5 1.5.5 1.5-.5-.5-1.5zm23 0v1-1zm4 0v1-1zm99 0v1-1zm2 0l1 2-1-2zm5 0l-1 2 1-2zm4 0v1-1zm7 0v1-1zm-354 1v1-1zm54 0v3q-3-1.5 0-3zm19 0v1-1zm6 0v1-1zm18 0v1-1zm6 0q3 1.5 0 3v-3zm22 0v1-1zm32 0v1-1zm20 0l1.5.5-1.5.5v-1zm58 0v1-1zm56 0v1-1zm5 0v1-1zm36 0v1-1zm19 0l3.5 1.5-1.5.5-2-2zm-171 1v1-1zm34 0v1-1zm-214 1v1-1zm121 0v1-1zm111 0v1-1zm107 0v1-1zm6 0l1.5.5-1.5.5v-1zm-294 1v1-1zm50 0v1-1zm10 0v1-1zm44 0v1-1zm22 0v1-1zm49 0v1-1zm8 0v1-1zm-311 65q1.8 3.8 9 2h2l8 2q1.5-2.5 3 1l4-2-.5 1.5q-.9 3.4 4.5 1.5l3.5-2.5-1.5-2.5 2.5 2.5v2l-1 3 1 5-1.5 1.5-2.5-1.5q2.6-1.4 2-6-1.2-2.7-2.5-.5h-5l-13-4h-16l-13 4-2-3 3 1 16.5-3.5-.5-1.5zM26 325v1-1zm50 0v1-1zm0 6v1-1zm0 2v1-1zm22.5-13v1-1zm39 0v1-1zm30 0v1-1zm141 0v1-1zm52 0v1-1zm10 0v1-1zm116 0v1-1zm30 0v1-1zm19 0v1-1zm15 0v1-1zm-531 1v1-1zm11 0l-1 2 1-2zm26 0v1-1zm6 0v1-1zm2 0v1-1zm8 0v1-1zm28 0v1-1zm18 0l1 1h10l7 2 3-2v1l-1.5.5 2 1-2.5 1.5q-7.6-4.9-22-3l-12 4 1-2 14-4zm19.5 3v1-1zm3.5-3v1-1zm99 0v1-1zm23 0l1 2h2l2.5 1.5-1 3q2.3 1.3-.5 2.5l-1.5.5v2l-.5 28.5-.5-31.5q3-1.2 2-5.5h-23.5l-1.5 1.5 1.5 2.5 2.5 1.5v34q1.9 8.6 7.5 13.5 4.2 4.3 11.5 5.5l-3.5.5-3-1-2 1-4-6-1.5.5q2.7-1.7-1.5-3.5l-1.5.5 1-2.5-3-.5 1-2-3-10 1-4-1.5-2.5 1.5.5v-22q-3.6-1.9-4-7l1.5-1.5h15l3-1 2.5 1 .5-2zm-8.5 57v1-1zm2 2q-2 3 1 2l-1-2zm10.5-59l1.5.5-1.5.5v-1zm108 0v1-1zm46 0q1 3 6 2h26l1.5 1.5-1 6 3 1.5 5.5 7 2-1q3.3 1.8-.5 3.5l4.5 4.5 2.5-1.5-2-7 2-2-1-3-.5-2.5-1.5.5-1-6 6.5-2.5 1 1h10q5.5 1.5 7-1l3.5 2.5q-.3 5.2-4 7v46l1 1-2 .5v-49.5l1.5-1.5h1.5v-4h-23.5l-1.5 1.5 1.5 2.5 2.5 1.5-.5 21.5-16.5-17.5-3-5 2-3-1.5-1.5h-31l-1.5 2.5 3 1.5-.5 3-4.5-3.5 3.5-6.5zm.5 1v1-1zm70 7v1-1zm-21 17v1-1zm-10 24v1-1zm8.5-49v1-1zm25 0v1-1zm38 0l1 1h11l10 2q1.8-3.8 3.5-.5l-.5 1.5 2-1 2.5 1 1.5-3v2l3-1 .5 2.5q1.3 4.7-1 6l.5 1.5-2.5-.5 2-6-2.5-1.5q-1.5 2.5-7 1l-12-3h-17l-12 4-7 6-.5-2h2q-1.1-2.7 1.5-2l7.5-4 .5-2 2 1 4-2q5.5 1.5 7-1zm24.5 2v1-1zm-3.5-2v1-1zm-528 1v1-1zm73 0v1-1zm5 0l-1 2-1.5-.5 2.5-1.5zm62 0v1-1zm7 0l3 1h10l1-1q1.3 2.3 6 1 1.3-2.3 2.5.5l-.5 1.5-1-1h-24l-1.5 2.5 4 3v48l-1.5 1.5-2.5 1.5q-1.1 3.3 1.5 2.5v1H167v-5l4-1.5-1-4v-2l1-2-1-2v-2l1-2-1-4v-2l1-2-1-4v-2l1-2-1-1v-12l-.5-3.5-1.5.5v-2l-1-5 5.5-2.5z"/><path fill="#FEFEFE" stroke="#FEFEFE" d="M290.5 322l1 1H313l-.5 2-1-1h-23l-1.5 2.5 2 2v34l-2.5 3.5q-4.3 3.7-14 2l-6.5-4.5.5-1.5 2.5.5-1 2 3-1-1 2.5q3.6 2.2 12.5 1l4.5-2 1-3.5v-30q-3.2-1.2-2-7l4.5-2.5zm42 0l3 1h24l1.5 1.5-1 7 3 3-1.5 1.5-3.5-7.5 2-3-1.5-1.5h-28l-1.5 2.5 3 3V379l-3 1.5 2 3-1.5.5-1.5-3.5q3.1-1.7 1.5-3.5l1.5.5-.5-47.5-1.5.5-1-2v-2l1.5-3.5 3-1zm41 0l1 1h19l2-1 1 1h8.5l-.5 2-1-1h-28l-1.5 2.5 2 3-9.5 16.5-3.5-6.5h1l1.5 3.5 2.5-.5 6-11V327l-2-.5 2-3-.5-1.5zm-6.5 22v1-1zm149.5-22l1 2-1-2zm-496 1v1-1zm59 0v1-1zm117 0v1-1zm2 0v1-1zm73 0v1-1zm145 0v1-1zm-48 1v1-1zm3 0v1-1zm143 0l1.5.5-2.5 1.5 1-2zm-350 1l.5 1.5h-1l.5-1.5zm-144 1l1.5 2.5-10 9-1.5 2.5-.5-1.5 3-4.5h2q-1.5-3.8 1.5-3l4.5-2.5-.5-2.5zm79 0v2q2.3.8 1.5-1.5h1l-1.5 2.5-7.5 5-2.5 4v-3l1.5.5V333h2q-1.1-2.7 1.5-2l3.5-2.5q-2.2-1.2.5-2.5zm41 0l4.5 2.5-1.5-.5q-3.7-.3-3-2zm58 0v1-1zm-175 1v1-1zm171 0l1.5 2.5-4 .5v35.5q.1 1.1 5.5.5h2q5.5 1.5 7-1 1.5 2.5 7 1h12l.5-1.5 2-1-2.5 3.5H191v-37.5l3.5-2.5z"/><path fill="#FEFEFE" stroke="#FEFEFE" d="M312.5 327l-.5 1.5v1.5l-2 .5v29l-2 11 .5 1.5-2-1q1.9 2.8-3.5 5.5l-2.5 4.5-2-1q-1.6 3.9-8 3v-1q8.6-1.9 13.5-7.5l4-9q-1.5-5.5 1-7v-29l1.5-1.5 2-1zm92 0l.5 2.5-2 4v44l2 .5v1.5l-3-2v-48l2.5-2.5zm61 0v1-1zm-386 1v1-1zm12 0l1 2-1-2zm272 0v1-1zm2 0v1-1zm95 0l1.5.5-1.5.5v-1zm-445 1v1-1zm79 0v1-1zm52 0q2.6-.7 1.5 2h3.5v1l-1.5.5 4 3-1.5.5-6-7zm225 0v1-1zm94 0v1-1zm43 0v1-1zm-52 1v1-1zm-364 1v1-1zm177 0v1-1zm150 0l1 2-1-2zm-265 1q2.3-.7 1.5 1.5l-1.5-1.5zm89 0v1-1zm124 0v1-1zm55 0v1-1zm44 0v1-1zm-102 1v1-1zm-276 1v1-1zm155 0v1-1zm124 0l1.5.5-1.5.5v-1zm50 0l1.5.5-1.5.5v-1zm44 0v1-1zm46 0v1-1zm56 0l.5 1.5-4 8 .5 1.5-2-1v2l-2.5 1.5 2 .5q-1.1 2.7 1.5 2l6.5 5.5q3.3 3.7 2 12l-2 6.5q-2.7-1.1-2 1.5l-2 3.5-3 1.5.5 1.5h-4l-10 2v-1l7-1 10.5-6 4-9.5v-6q-1.2-5.7-5.5-8.5l-10.5-4 .5-2 3 2 1.5-1.5-.5-2.5-3-2-2.5-.5q.9-3-3.5-1.5-1.5 2.5-3-1l-3.5.5.5 1.5q-1.5-3.5-8-2h-2l-4.5 2.5 3 2-1.5.5-2.5-1 1.5-4 12.5-2 .5 2q1.5-2.5 7-1l8.5 3 1.5 3 3.5-2.5 3.5-7.5zM531 362v1-1zm11 1v1-1zM72.5 335v1-1zm334 0v1-1zm100 1v1-1zm-353 1l1 2-1-2zm209 0v1-1zm202 0v1-1zm-493 1l.5 1.5-2 1 1.5-2.5zm434 0l.5 2.5-1 5 1 3.5-2-.5v-9l1.5-1.5zm-460 1l7.5 1.5-6.5.5-1-1-4 2q-6.3-.8-9 2v-1l13-4zm42.5 0q2.7-1.1 2 1.5l-3 5-1 9 3 12 6.5 8.5 14.5 7.5-2.5.5-2-1-1 1-3-3-3 1v-2l-1.5-.5.5-1.5-6.5-4.5-1-3.5h-2q1.5-3.7-1.5-3l-.5-2.5-1-13-1-1 3-5 1-5.5zm-2 10v1-1zm35.5-10l9 2 6.5 4q2.8 3.6 2 11.5-1.4 6.1-6.5 8.5-4.3 3.2-12 3l-5-1-3.5-2.5 1.5-.5q2 3 8 2l1.5-.5-.5 1.5 2.5-.5-1.5-6.5 2.5 2.5-.5 3.5 5.5-1.5-.5-1.5h2l3.5-2.5 1-6-.5-1.5 1.5-.5-2.5-5.5q-2.6.8-1.5-2.5l-10.5-4.5-2.5.5-.5 1.5-3-1q-1.7 3.7-3.5.5 1.8 1.6 3.5-1.5l4-1zm443 0v1-1zm-409 1l1.5.5-1.5.5v-1zm379 0v1-1zm-525 1v1-1zm45 0l8.5 2 1 5 3-1.5 2.5-4.5 1.5 2.5h-2l-2.5 4.5q-3.7.8-4.5-1.5 1.5-4.4-1.5-3.5l-6-2v-1zm476 0v1-1zm6 0v1-1zm2 0v1-1zm-426 1l-1 2-1.5.5 1 2h-2q1.3 3.8-2.5 2.5l.5-1.5 3.5-4.5 2-1z"/><path fill="#FEFEFE" stroke="#FEFEFE" d="M125.5 342l.5 1.5h-1l.5-1.5zm33 0l-.5 1.5q-1.5 4.4 1.5 3.5l-.5 1.5q1.8 10.3-2 15l.5 1.5q-2.6.8-1.5-2.5 3.1-4.4 2-13l-2-6 2.5-1.5zm-150 1l.5 1.5H8l.5-1.5zm554 0v1-1zm-31 1l1.5.5-1.5.5v-1zm18 0v3q-3.7 1-2.5-2l2.5-1zm-519 1v3l-1.5-.5-1.5 3.5-.5-1.5 3.5-4.5zm99 0v1-1zm410 0l5.5.5-5.5.5v-1zm14 0v1-1zm-496 1v1-1zm26 0v1-1zm265 0l13.5 28.5 3.5 4.5 3.5-2.5 14.5-28.5.5 29.5-2 1 1-1v-23l-2-1-2 5 2 1-.5 2.5-2.5-1.5q1.1 3.3-1.5 2.5l-.5 2.5-1 3 .5 1.5-2.5-1-2 8-2 .5q2.3 1.3-.5 2.5l-5 2q-2.8-1.2-.5-2.5l-1-4.5-2-.5v-2l-12-24 .5-2.5zm34.5 6v1-1zm-19 28v1-1zm196.5-34l-1 2 1-2zm-556 2v1-1zm438 0l23.5 24.5 4 6.5-3 1.5q-1.1 3.3 1.5 2.5v1H466v-5q2.7 1.1 2-1.5l-3-4.5-4.5-1v2l-2-5 1.5.5-1.5-2.5-1.5-.5q2.3-1.2-.5-2.5-4 .5-4.5-2.5 1.3-3.7-2.5-2.5 1.7-2-2-4-1.7 3.8-3.5.5h2l-2.5-4.5-.5 26.5.5 1.5-1.5-.5.5-30.5zm-435 1l.5 9.5H7l.5-9.5zm23 0l-1 2 1-2zm102 0l1 2-1-2zm-65 1v1-1zm39 0l-.5 1.5-.5 4.5-.5-4.5 1.5-1.5zm400 0l4 5q4.3 3.8 11.5 4.5l-3.5.5-8-3-3.5-3.5-.5-3.5zm59 0v1-1zm-508 1v1-1zm14 0v1-1zm11 0v1-1zm27 0v1-1zm-45 1v1-1zm46 1l.5 1.5h-1l.5-1.5zm-42 1v1-1zm-66 1l1.5.5-1.5.5v-1zm26 0l-.5 1.5-.5 1.5-.5-1.5 1.5-1.5zm37 0l3.5 1 1 2.5-2.5-1.5q-4.2-1.3-2.5 3.5l-4.5 3.5-1-2h2l2.5-1.5-1-2 .5-2.5 1.5.5.5-1.5zm283 0v1-1zm-317 1v1-1zm39 0v1-1zm13 0v1-1zm424 0v1-1zm-264 1l-1 2 1-2zm107 0v1-1zm-320 1v1-1zm76 0l3 4 1.5-.5-.5 2.5q-4.1-2.3-4-6zm398 0v1-1zm-476 1l1 2-1-2zm81 0v1-1zm-52 1v1-1zm13 0v1-1zm154 0l1.5.5-2.5 1.5 1-2zm58 0v1-1zm4 0v1-1zm164 0v1-1zm59 0l4.5 2.5 1.5 2.5 7 2q1.5-2.5 3 1l1.5.5-1.5.5-9-2-3.5-2q1.5-3.8-1.5-3l-2-1-1.5.5 1.5-1.5zm7 0l-1 2 1-2zm8 0l13 1 9.5 3.5q1.5 4.4-1.5 3.5l-2 1 1-2q2.6.7 1.5-2l-2.5 1v-2l-2 1-4-2-2-1-5 2q-1.7-3.3-7.5-2.5l1.5-1.5zm-516 1l.5 1.5H8l.5-1.5zm37 0v1-1zm71 0v1-1zm82 0v1-1zm8 0v1-1zm8 0v1-1zm58 0l2.5.5-2.5.5v-1zm-241 1l4.5 1.5q-1.2 2.8-2.5.5l-2-2zm41 0l.5 1.5h-1l.5-1.5zm6 0l1.5.5-1.5.5v-1zm49 0v1-1zm-89 1l1.5.5-1.5.5v-1zm5 0l2.5.5-1.5 2.5 3 1 5-2h2l4-1v1q-5.7 3.3-15 3l-7.5-2.5 2.5-.5 3 1 2.5-1.5-.5-1.5zm.5 3v1-1zm8.5-3v1-1zm3 0v1-1zm19 0q2.8 1.3.5 2.5l2 4.5 3 1.5-1.5.5-5.5-6.5 2-1-.5-1.5zm42 0v1-1zm82 0v1-1zm8 0v1-1zm8 0v1-1zm9 0v1-1zm6 0l1.5 2.5h-1l-.5-2.5zm43.5 0l2 .5-2 1V363zm6.5 0l-1 2 1-2zm102 0v1-1zm126 0l.5 1.5h-1l.5-1.5zm-499 1l1 2-1-2zm42 0v1-1zm33 0v1-1zm199 0v1-1z"/><path fill="#FEFEFE" stroke="#FEFEFE" d="M532.5 364l1.5.5-1.5.5v-1zm-290 1v1-1zm138 0l1.5.5-1.5.5v-1zm69 0v1-1zm-372 1v1-1zm78 0v1-1zm375 0v1-1zm2 0v1-1zm2 0l.5 1.5h-1l.5-1.5zm-524 1l6 8q5.9 5.6 15.5 7.5l-2.5.5-7-3H19q1.5-3.7-1.5-3l-7.5-5.5 1-2-.5-2.5zm1.5 4v1-1zm69.5-4v1-1zm76 0v3q-3-1.5 0-3zm349 0l.5 1.5h-1l.5-1.5z"/><path fill="#FEFEFE" stroke="#FEFEFE" d="M154.5 368l.5 2-2-.5 1.5-1.5zm87 0v1-1zm291 0l7.5 1.5-6.5.5-1-2zm-288 1v1-1zm110 0v1-1zm-202 2l.5 1.5-6 5q.8 2.3-1.5 1.5v2l-2-1-2 4-.5-2-6.5 1v-1q12.2-2.3 18-11zm204 0v1-1zm147.5 0q2.7-1.1 2 1.5-2.8 3-2 8.5l8.5-1 4 2 12.5 1.5-7.5.5-12-3-6 2-1.5-4.5q3-2.2 2-7.5zm-46.5 1v1-1zm-378 1v1-1zm275 0v1-1zm19 0v1-1zm-284 1v1-1zm66 1v1-1zm198 0v1-1zm-274 1l.5 3-2.5 1-5-1-3 3h-2l-13 2v-1l9-1 11-5h2l3-1zm-9.5 4v1-1zm303.5-4v1-1zm7 0v1-1zm26 0v1-1zm-58 1l4.5 2v5h-2.5l1.5-2.5-1.5-2.5-2-2zm72 0v1-1zm-257 1v1-1zm259 0v1-1zm-405 1v1-1zm232 0v1-1zm131 0l.5 4 2 .5-3 .5.5-5zm40 0l.5 4 2 .5-3 .5-2-3.5 2.5-1.5zm25 0l.5 5-3-.5 2-.5.5-4zm48 0l1.5 3.5-3.5 1.5v-1h1.5l.5-4z"/><path fill="#FEFEFE" stroke="#FEFEFE" d="M73.5 380l1.5.5-1.5.5v-1zm87 0v1-1zm2 0l1.5.5-1.5.5v-1zm90 0l-1 4q-3.5-2 1-4zm120 0l1 2-1-2zm44 0v1-1zm48 1v1-1zm-443 1v1-1zm2 0v1-1zm75 0v1-1zm49 0v1-1zm84 0v1-1zm124 0l.5 1.5h-1l.5-1.5zm-321 1l3.5.5-3.5.5v-1zm77 0l3.5.5-3.5.5v-1zm18 0l3.5.5-3.5.5v-1zm119 0v1-1zm18 0l2.5.5-2.5.5v-1zm19 0l3.5.5-3.5.5v-1zm13 0v1-1zm5 0v1-1zm59 0v1-1zm41 0l1.5.5-1.5.5v-1zm98 0v1-1zm-460 1l10.5.5-10.5.5v-1zm79 0l6.5.5-6.5.5v-1zm104.5 0q3-1 2 2h3l.5-2 1.5 1.5-.5 2.5-2 1-1-2q-1.7 2.7-3.5-1.5V384zm49.5 0l9.5.5-6.5 1.5-4.5-.5 1.5-1.5zm258 0l9.5.5-9.5.5v-1zm-410 2l1 4-3.5-2.5 2.5-1.5zm418 1v1-1zm-265 1v1-1zm263 0v1-1zm-494 1v1-1zm184 1v1-1zm30 51v3q-3-1.5 0-3zm2 0v1-1zm16 0l-1 2 1-2zm8 0v1-1zm5 0v1-1zm-9 1v1-1zm-19 1l1 2-1-2zm5 0v1-1zm2 0v1-1zm16 0l3.5 1.5-3 1 .5 1.5-1.5-1.5.5-2.5zm5 0v1-1zm2 0v1-1zm2 0l1 2-1-2zm-18 1v1-1zm2 0v1-1zm3 0v1-1zm-22 1v1-1zm8 0v1-1zm6 0v1-1zm10 0v1-1zm-3 1v1-1zm-3.5 1l2 .5-2 1V447zm-25.5 1v1-1zm19 0v1-1zm24 0l1.5.5-1.5.5v-1zm7 0v1-1zm2 0v1-1zm-48 1v1-1zm43 1v1-1zm-27 1l.5 1.5h-1l.5-1.5zm25 0v1-1zm7 0v1-1zm-52 2l-2 3 2-3zm46 0v1-1zm-26 1v1-1zm2 0v1-1zm28 0l1 2-1-2zm-30 2l2.5.5-2.5.5v-1zm-51 2l1 2-1-2zm25 0v1-1zm2 0v1-1zm29 0v1-1zm26 0v1-1zm-85 1v1-1zm87 0v1-1zm-81 1v1-1zm23 0l-1 2 1-2zm62 0q3 1.5 0 3-3-1.5 0-3zm.5 1v1-1zm-65.5 0v1-1zm28 2v1-1zm5 0v1-1zm3 1l4 5q-2.2.8-1.5-1.5l-2.5-3.5zm-9 1v1-1zm39 0v1-1zm9 0l2.5 1-.5 2q-1.7-3.1-3.5-1.5l1.5-1.5zm-78 1l-1 2-2 1 1-2 2-1zm28 0v1-1zm5 0v1-1zm38 0v1-1zm-45 1l1 2-1-1-2.5 1.5 2.5-2.5zm13 0v1-1zm-45 1l-1 2 1-2zm36 0v1-1zm6 1v1-1zm39 0q1.8 3.1 3.5 1.5l-1.5 1.5-2-3zm-47 1v1-1zm4 0v1-1zm-36 1l-3 4 3-4zm-4 1v1-1zm34 0l-1 2 1-2zm21 0l3 4-2.5-.5 1-1-1.5-2.5zm33 0v1-1zm-92 1v1-1zm33 0v1-1zm17 0l.5 1.5h-1l.5-1.5zm3 0v1-1zm-53 2l2.5 1.5-2.5 1.5v-3zm52 0v1-1zm-13 1l-1 2 1-2zm59 0v1-1zm-100 1v1-1zm32 0l1 2-2.5-.5 1.5-1.5zm25 0v1-1zm6 0v1-1zm-59 1v1-1zm57 0v1-1zm6 0v1-1zm-67 1v1-1zm2 0v1-1zm100 0l.5 1.5h-1l.5-1.5zm-100 2v1-1zm60 0v1-1zm4 0v1-1zm-67 1v1-1zm29 0l.5 1.5h-1l.5-1.5zm36 0v1-1zm-27 2v1-1zm28 0v1-1zm6 0l1.5.5-1.5.5v-1zm-44 1v1-1zm-28 1v1-1zm34 0v1-1zm38 0v1-1zm-47 1v5l-2.5-1.5 2-1q-2.2-1.2.5-2.5zm7 0v1-1zm45 0l-2 3 2-3zm-82 1v1-1zm108 0v1-1zm-105 1q2.3-.7 1.5 1.5l-1.5-1.5zm69 0l1 2-1-2zm-31 1v1-1zm37 0v1-1zm29 0v1-1zm-72 1v1-1zm3 0v1-1zm33 0v1-1zm-2 1l.5 1.5h-1l.5-1.5zm9 0l-2 3-.5-2 2.5-1zm27.5 0l3 .5-2.5 1.5-.5-2zm-105.5 1v1-1zm5 1v1-1zm26 0l1 2-1-2zm14 1v1-1zm28 0v1-1zm30 0v1-1zm-63 1v1-1zm-34 1v1-1zm66 0l.5 2.5q.8 2.3-1.5 1.5l-.5-2.5 1.5-1.5zm2 0v1-1zm-26 1v1-1zm53 0l1 2-1-2zm-60 1v1-1zm64 0l1 2-1-2zm-99 1v2l3.5 1.5-1.5-.5-3.5-1.5 1.5-1.5zm32 0v1-1zm11 0v1-1zm14 0v1-1zm-22 1v1-1zm12 0v1-1zm46 0v1-1zm2 0v1-1zm2 0v1-1zm-46 1v1-1zm3 0v1-1zm7 0v1-1zm-5 1v1-1zm8 0l-1 2 1-2zm31 0v1-1zm-37 1l1.5 2.5h-1l-.5-1.5-1.5.5 1.5-1.5zm33 0v1-1zm2 0v1-1zm-91 1v1-1zm4 1l2 3-2-2-2.5 1.5 2.5-2.5zm30 0l1 2-1-2zm23 2l1.5.5-1.5.5v-1zm29 0l1.5.5-1.5.5v-1zm-42 1v1-1zm12 1l.5 1.5h-1l.5-1.5zm33 0l2.5.5q-2.1 3.3-2.5-.5zm-79 1l3.5 3.5-1.5 1.5-2.5-.5 3-1-3-1.5.5-2zm28 0v1-1zm10 1l1 2-1-2zm6 0l.5 2.5-1.5 1.5v-2l-1.5-.5 2.5-1.5zm-173 2v1-1zm159 0v1-1zm7 0v1-1zm34 0l-1 4-2.5-.5 3.5-3.5zm-204 2v1-1zm139 0v1-1zm-135 1l-1 2 1-2zm161 0l1.5.5-1.5.5v-1zm40 0v1-1zm-73 1v1-1zm7 0v1-1zm32 0v1-1zm-5 1v1-1zm8 0v1-1zm-7 2l1 2-1-2zm4 0l1.5 2.5-2-1 .5-1.5zm27 0v1-1zm-59 1l2.5 1.5-1.5.5-1-2zm36 1v1-1zm22 0l2 3-1-1-3.5 2.5v-2l2.5-2.5zm.5 1v1-1zm-1 1v1-1zm-30.5 0v1-1zm-26 1v1-1zm8 0v1-1zm23 0v1-1zm2 0v1-1zm5 0l1.5 2.5h-1l-.5-2.5zm-3 1v1-1zm-29 1l1.5.5-1.5.5v-1zm47 0v1-1zm3 1v1-1zm-30 1v1-1zm13 0v1-1zm12.5 0l2 .5-.5 2.5-1.5-3zm-43.5 1v1-1zm34 0l1 2-1-2zm17 0v1-1zm-13 1l-1 2 1-2zm2 0v1-1zm-41 1v1-1zm13 0l2.5.5-2.5.5v-1zm17 0l1 2-1-2zm5 1v1-1zm8 0v1-1zm6 0v1-1zm-43 1v1-1z"/><path fill="#FFF" stroke="#FFF" d="M0 0h575v595H0V0zm101 184v1-1zm6 0v1-1zm44 0v1-1zm3 0l-2 1q-3 1-3 5v19h2l1 1q-1-3 2-2v-2l3 1 1-1h13v38h-1q-3 1-2 5h27v-4l-2-4v-35h16l4 4 1-1v-24l-1-1-2 3h-2v1h-17l-5-1-3 1-5-1-3 1-5-1-1 1h-15l-1-1q2-2 0-3zm3 0v1-1zm98 0v1-1zm111 0v1-1zm21 0v1-1zm17 0v1-1zm39 0v1-1zm-349 1v1-1zm4 0v1-1zm2 0v1-1zm16 0v1-1zm44 0v1-1zm91 0v1h1l-1-1zm3 0v1-1zm2 0v1-1zm5 0v1-1zm11 0v1-1zm38 0l-3 3v19l1 1q-1 3 4 1l1-3h17v37h-2v2q-3-1-2 4 1 2 3 0h17l1 1 5-1q1 2 2 0 1-6-2-5v-38h16l4 4 2-1-1-1 2-1-1-4 1-3v-6q1-7-1-6l-1-3-7 3-3-1-2 1h-48q2-4-3-3zm9 0v1h1l-1-1zm42 0v1-1zm4 0v1-1zm24 0v1-1zm12 0v1-1zm2 0v1-1zm2 0v1-1zm2 0v1-1zm38 0v1-1zm8 0v1-1zm4 0v1-1zm3 0v1-1zm12 0v1-1zm2 0v1-1zm12 0v1-1zm3 0v1-1zm-399 1v1-1zm5 0v1-1zm2 0v1-1zm2 0v1-1zm4 0v1h1l-1-1zm32 0v1-1zm7 0v1-1zm4 0v1-1zm70 0v1-1zm32 0v1-1zm17 0v1-1zm15 0v1-1zm86 0v1-1zm22 0v1-1zm18 0v1-1zm46 0v1-1zm2 0v1-1zm5 0v1-1zm16 0v1-1zm4 0v1-1zm6 0v1-1zm2 0v1-1zm-394 1v1-1zm5 0v1-1zm2 0q-2 3-7 3-2 3-3 1l-1 2-4 1-3 6q1 2-1 1v2l-2 2v11l3 2 2 3 11 4h2l3 1h2l3 2 8-1v2l2-1 4 1 2 3-5 2h-10l-1-1-3 1-11-4q-3 1-2-2h-2v-1l-3-2-2 4v4l-1-1-1 3v2l-3 7q-1 3 2 4l6-2 15 3h2q4-1 6 1l17-1 7-3q3 1 2-1l3-2 2-3q-1-3 2-2l1-3-1-14h-1v-1l-10-7q-2-4-3-1l-4-1h-2l-1-1-15-1-5-2 3-2q1 3 3-1 5-1 7 1 1-2 6-1h2v2l2-1 4 1 1 3 6 1 1-2 3-2-2-2 3-5q-1-3 2-2l1-5-3-3q-2-3-3 1-7 1-9-2l-19-1h-2l-3 1-3-1zm31 0v1-1zm130 0l-1 1h-13l-2 2 1 4-2 6q-4 1-1 3l-3 5q1 3-1 2v2l-4 7q1 2-1 1v2l-1 3q-4 1-1 3l-3 6q-4 1-1 3l-3 6q-2 3-4 2-2 6 4 4h20v-2q2-2-1-3l2-2 1-4h27l2 5-2 6h27v-3l-4-4-3-8v-2l-2-1 1-2-3-1-4-12q-3-2-1-4-3 1-2-3h-2l-4-12-2-2 2-5q-2-3-7-2h-2q-6 2-7-1zm136 0l-1 1h-12v6l3 1v48l-1 1h-2v5h30v-3l-2-2-2-1v-48l3-1q3 1 1-4l-4-3q-2 3-8 1l-5-1zm56 0q-12 2-19 9h-3v3q-3-1-2 2l-1-1-5 13q-2 14 3 22 3 1 2 3 2-1 1 2l2-1 3 5 2-1 3 1-1 2 6 2 11 1 1 1h14l7-2h5l4-2q2 1 1-2h3l3-1 4 1 1-4-12-16q1-3-2-2v-1l-1-1-5 7q-3-1-2 2l-1-1-1 2-7 2h-10l-8-4-3-2-2-6v-2l2-6h4l-2-1 9-5h12l9 3-1 3 3 2 4 1 8-17q-1-3 2-2l-1-5h-3l-14-2q-2-4-3-1-5 1-6-1l-2 1-5-1h-2l-2 1-3-1zm23 0v1-1zm2 0v1-1zm6 0v1-1zm2 0v1-1zm3 0v1-1zm3 0v1-1zm2 0v1-1zm-399 1v1-1zm39 0v1h1l-1-1zm351 0v1-1zm-244 1v1-1zm175 0v1-1zm26 0v1-1zm-11 3v1-1zm-6 1v1h1l-1-1zm-209 1v1-1zm-133 1v1-1zm330 0v1-1zm18 0v1-1zm-46 1v1h1l-1-1zm109 1v1-1zm2 0v1-1zm-415 1v1-1zm412 0v1-1zm-352 3v1-1zm140 0v1-1zm2 0v1-1zm-203 1v1-1zm63 0v1-1zm3 0v1-1zm2 0v1-1zm94 0v1-1zm-166 1v1-1zm65 0v1h1l-1-1zm144 1v1-1zm-178 1v1h1l-1-1zm3 0v1-1zm9 0v1-1zm-13 1v1-1zm110 0v1-1zm68 0v1-1zm2 0v1-1zm2 0v1-1zm203 0l-1 2h1v-2zm-162 1v1-1zm-252 1v1-1zm208 0v1-1zm-161 1v1-1zm182 0v1-1zm148 0v1-1zm-257 1v1-1zm-65 1v1-1zm342 0v1-1zm2 0v1-1zm-279 1v1-1zm39 0v1-1zm239 0v1-1zm2 0v1-1zm-191 1v1-1zm170 0v1-1zm20 0v1-1zm-27 1v1-1zm30 0v1-1zm-171 1v1-1zm175 0v1-1zm-286 3v1-1zm284 0v1-1zm2 0v1-1zm-401 2v1-1zm115 0v1-1zm249 0v1-1zm35 0v1-1zm-398 1v1-1zm365 0v1-1zm0 2v1-1zm45 1v1-1zm-200 1v1-1zm2 0v1-1zm126 0v1-1zm54 0v1-1zm-382 1v1-1zm104 0v1-1zm254 0v1-1zm3 0v1-1zm2 0v1-1zm9 0v1-1zm7 0v1-1zm4 0v1-1zm15 0v1h1l-1-1zm-394 1l-1 2h1v-2zm2 0v1-1zm130 0v1-1zm2 0v1-1zm63 0v1-1zm177 0v1-1zm3 0v1-1zm19 0v1-1zm-392 1v1-1zm3 0v1-1zm3 0v1-1zm90 0v1-1zm33 0v1-1zm193 0v1-1zm32 0v1-1zm41 0v1-1zm-268 1v1-1zm-120 1v1-1zm121 0v1-1zm-3 3v1-1zm2 0v1-1zm-153 5v1-1zm426 0v1-1zm-303 2v1h1l-1-1zm214 0v1-1zm88 0v1-1zm-300 1v1-1zm157 0v1-1zm-214 1l-1 2h1v-2zm26 0v1h1l-1-1zm28 0v1-1zm25 0v1-1zm82 0v1-1zm109 0v1-1zm-217 1v1-1zm24 0v1-1zm26 0v1-1zm28 0v1-1zm84 0l-1 2h1v-2zm-282 1v1-1zm226 0v1-1zm134 0v1-1zm55 0v1-1zm2 0v1-1zm-219 1v1-1zm163 0v1-1zm55 0v1-1zm-295 1v1-1zm22 0v1-1zm28 0v1h1l-1-1zm77 0v1-1zm92 0v1-1zm72 0v1-1zm-415 1v1h1l-1-1zm250 0v1-1zm169 0v1-1zm-365 2v1-1zm94 0v1-1zm103 0v1-1zm35 0v1-1zm-257 1v1-1zm17 0v1-1zm106 0v1-1zm20 0v1-1zm56 0v1-1zm110 0v1-1zm2 0v1-1zm3 0v1-1zm-319 1v1-1zm4 0v1-1zm9 0v1-1zm6 0v1-1zm55 0v1-1zm26 0v1-1zm103 0v1-1zm2 0v1-1zm28 0v1-1zm2 0v1-1zm21 0v1-1zm4 0v1-1zm57 0v1-1zm42 0v1-1zm2 0v1-1zm5 0v1-1zm4 0v1-1zm7 0v1-1zm-372 1v1-1zm6 0v1-1zm3 0v1-1zm4 0v1-1zm5 0v1-1zm54 0v1-1zm19 0v1-1zm6 0v1-1zm18 0v1-1zm6 0v1-1zm22 0v1-1zm32 0v1-1zm20 0v1h1l-1-1zm31 0v1-1zm3 0v1-1zm24 0v1-1zm56 0v1-1zm5 0v1-1zm36 0v1-1zm7 0v1-1zm3 0v1-1zm9 0v1h1l-1-1zm-362 1v1h1l-1-1zm7 0v1-1zm57 0v1-1zm51 0v1-1zm76 0v1-1zm29 0v1h1l-1-1zm5 0v1-1zm139 0v1h1l-1-1zm-356 1v1-1zm3 0v1-1zm54 0v1-1zm49 0v1-1zm18 0v1-1zm90 0v1-1zm21 0v1-1zm107 0v1-1zm6 0v1h1l-1-1zm-294 1v1-1zm50 0v1-1zm10 0v1-1zm44 0v1-1zm22 0v1-1zm49 0v1-1zm8 0v1-1zM43 320v1-1zm56 0v1-1zm39 0v1-1zm30 0v1-1zm141 0v1-1zm52 0v1-1zm10 0v1-1zm116 0v1-1zm30 0v1-1zm19 0v1-1zm15 0v1-1zm-531 1v1-1zm11 0v1-1zm13 0l-17 4-10 6q-4-1-2 3h-2l-5 10q1 4-1 6l1 13v2l3 6v2l7 4q2-1 1 3h4l3 2 16 3h10l16-3q1-4 3-1 1-3 6-2h2q2 1 1-5v-2l-3-2-2-3q1-3-2-2v-3h-2l-2-6-3-1-3 4 1 2q-3 4-9 4h-2l-5 2-2-1-2 1-2-1h-2l-4-1v-1l-6-2-3-6v-4l4-8 6-2h5l4-2q1 3 8 1l7 3q2-1 1 4 1 2 5 1l6-13q-1-3 2-2l2-4-1-1 1-3-2-1-7 1v-2l-3 1q-2-4-3-1l-8-2h-2q-7 2-8-1zm13 0v1-1zm6 0v1-1zm2 0v1-1zm8 0v1-1zm2 0v1-1zm26 0v1-1zm18 0l-14 4q-2 3-3 1l-1 2-5 3q-3-1-2 2h-2q1 3-2 5 1 2-2 1l-1 6-2 2v4l1 13 1 2q3-1 1 3h2l1 4 7 4-1 2 5 1 3 3 1-1 15 3h6l14-3 1 2v-2l4-3q2 1 1-1l6-5q-1-4 2-3l1-3q-1-3 2-2l-1-1q4-5 2-15l1-2h-2v-4q-3 1-2-1l1-2q-3 1-2-1-4-2-1-3l-4-3 2-1v-1q-5 1-4-2l-8-3v-2l-2 1-3-2-15-1-1-1zm23 0v1-1zm99 0v1-1zm23 0l-1 2-2-1-3 1h-15l-2 2q0 5 4 7v24l-1 4 3 10-1 2h3l4 7 2-1-1 2 2 2 1-2 5 3 12 1 4 2 12-3h5l4-3 2 1 2-4 4-4-1-1 2-1 2-11v-29l2-1 1-7h-21l-1-1-5 3q-1 5 2 7v30l-1 3-4 2h-10l-1-1q-3 1-2-1h-1l-3-3v-31l2-1q2-1 0-2l1-3-2-2h-2l-1-2zm4 0v1h1l-1-1zm108 0v1-1zm46 0v1-1zm48 0v1-1zm25 0v1-1zm38 0q-2 3-7 1l-4 2-2-1-1 2-7 4q-3-1-2 2h-2q1 6-4 9v9h2l1 5q5 6 17 6l-1 2h6l3 1 4-1 2 1h4l3 2q2-1 1 2l-3 2h-11l-6-1q-2-4-3-1l-7-2-2-2-4-3-4 8q1 4-2 3 1 5-2 8l2 4 6-2 6 2 16 1 1 1 17-1 6-2h2l4-3 2-3q-1-3 2-2l2-6q1-9-2-12l-6-6-3-2h-2l-2-1-4-2-2 1-2-1h-11l-8-3 4-3 2 1 8-2 4 1q1 3 3 1 4-2 3 2h3l3 2 1 3 2-1-1-1 2-1 4-10 3-3v-5l-4-3-1 2-2-1-2 1q-2-4-3-1l-10-2h-11l-1-1zm21 0v1-1zm-528 1v1-1zm4 0v1-1zm46 0v1-1zm23 0v1-1zm5 0v1-1zm35 0v1h1l-1-1zm27 0v1-1zm7 0l-6 3 3 10v12l1 1-1 2v2l1 4-1 2v2l1 4-1 2v2l1 2-1 2v2l1 4-4 1 1 5h57v2q2 4 4 1l1 2 2-1-1-3 1-2-1-1v-17l-3-2-2 2v1h-12q-6 2-7-1-2 3-7 1h-2q-6 1-6 0v-36h4q-2-2-1-6-1-3-2-1-5 1-6-1l-1 1h-10l-3-1zm160 0l-3 1-2 4v2l1 2h2v47l-3 3 2 3h23v-5l-3-1-2-1v-22l1-6 11 24v2h2l3 6 4-1q2-1 0-2l2-1q-1-4 2-5-1-4 2-3l1-3 1-3q2 1 1-2l3-1-2-1 4-7-1 2 1 1v23l-3 1 1 5h24v-6h-2v-46q4-2 2-9h-8l-1-1-2 1h-20l-2 4h2v5l-6 11h-2l-4-7 1-1-3-3 1-7-1-2h-24l-3-1zm41 0v1-1zm47 0l-3 6h2l3 4-1 1 1 1v44l-5 3 2 3h26v-5l-3-1 1-27 2 5 2-1q3 2 2 4 3-1 2 3 1 3 5 2 2 1 0 3h2l1 3v2l5 1 3 5q1 2-2 1l1 5h27l1-3-2-2-2-1v-48h2l2-5-3-3q-2 3-7 1h-10l-1-1-7 3 1 6 2-1v3l1 3-2 2q2 1 1 6l1 3-2-1-5-4q4-2 1-4l-2 1-6-7-3-1 1-6-1-2h-24l-1-1-5 1-3-1zm96 0v1-1zm40 0v1-1zm7 0v1-1zm-543 1v1-1zm48 0v1-1zm8 0v1-1zm3 0v1-1zm22 0v1h1l-1-1zm36 0v1-1zm59 0v1-1zm2 0v1-1zm73 0v1-1zm145 0v1-1zm101 0v1-1zm40 0v1-1zm9 0v1-1zm-543 1v1-1zm2 0v1-1zm50 0v1-1zm293 0v1-1zm3 0v1-1zm143 0v1h1l-1-1zm-490 1v1-1zm140 0l-1 2h1v-2zm349 0v1-1zm-493 1l-1 2h1v-2zm79 0v1-1zm99 0v1-1zm-100 1v1-1zm367 0v1-1zm-386 1v1-1zm12 0v1-1zm272 0v1-1zm2 0v1-1zm95 0v1h1l-1-1zm-445 1v1-1zm77 0v1-1zm2 0v1-1zm277 0v1-1zm94 0v1-1zm43 0v1-1zm-52 1v1-1zm-380 1v1-1zm16 0v1-1zm76 0v1-1zm101 0v1-1zm150 0v1-1zm-265 1l1 2q1-3-1-2zm89 0v1-1zm124 0v1-1zm53 0v1-1zm46 0v1-1zm100 0v1-1zm-490 1v1-1zm288 0v1-1zm-289 1v1-1zm13 0v1-1zm155 0v1-1zm124 0v1h1l-1-1zm50 0v1h1l-1-1zm44 0v1-1zm-371 1v1-1zm316 0v1-1zm158 2v1-1zm-25 2v1-1zm25 0v1-1zm-30 1v1-1zm6 0v1-1zm-10 1v1-1zm6 0v1-1zm2 0v1-1zm-380 1v1-1zm404 1v1-1zm-492 1v1-1zm479 0v1-1zm11 0v1-1zm-7 1v1-1zm-496 1v1-1zm26 0v1-1zm477 0v1-1zm-530 1v1-1zm529 0v1-1zM5 348v1-1zm26 1v1-1zm54 0v1-1zm-55 1v1-1zm38 0v1-1zm498 0v1-1zm-508 1v1-1zm14 0v1-1zm11 0v1-1zm-18 1v1-1zm179 1v1-1zm-175 1v1-1zm-66 1v1h1l-1-1zm26 0v1-1zm416 0v1-1zm-413 1v1-1zm32 0v1-1zm7 0v1-1zm13 0v1-1zm362 0v1-1zm62 0v1-1zm-264 1v1-1zm107 0v1-1zm-320 1v1-1zm212 0v1-1zm262 0v1-1zm-447 2v1-1zm167 0v1h1l-1-1zm58 0v1-1zm4 0v1-1zm164 0v1-1zm66 0v1-1zm-471 1v1-1zm153 0v1-1zm8 0v1-1zm8 0v1-1zm9 0v1-1zm49 0v1h2l-2-1zm108 0v1-1zm135 0v1-1zm-456 1v1-1zm19 0v1h1l-1-1zm190 0v1-1zm-230 1v1h1l-1-1zm5 0v1-1zm2 0v1-1zm7 0v1-1zm3 0v1-1zm19 0v1-1zm124 0v1-1zm8 0v1-1zm8 0v1-1zm9 0v1-1zm47 0v1-1zm2 0v2l2-1-2-1zm7 0v1-1zm102 0v1-1zm149 0v1-1zm-486 1v1-1zm6 0v1-1zm25 0v1-1zm8 0v1-1zm195 0v1-1zm4 0v1-1zm250 0v1h1l-1-1zm9 0v1-1zm-498 1v1-1zm199 0v1-1zm138 0v1h1l-1-1zm69 0v1-1zm94 0v1-1zm-466 1v1-1zm453 0v1-1zm2 0v1-1zm2 0l-1 2h1v-2zm-453 1v1-1zm76 0v1-1zm-1 1v1-1zm85 0v1-1zm-84 1v1-1zm87 0v1-1zm110 0v1-1zm21 0v1-1zm83 0v1-1zm1 1v1-1zm-449 1v1-1zm298 0v1-1zm48 0v1-1zm101 1v1-1zm2 0v1-1zm-105 1v1-1zm19 0v1-1zm87 0v1-1zm-371 1v1-1zm159 0v1-1zm-93 1v1-1zm198 0v1-1zm20 1v1-1zm7 0v1-1zm26 0v1-1zm-155 1v1-1zm78 0v1-1zm91 0v1-1zm-257 1v1-1zm-146 1v1-1zm232 0v1-1zm-176 1v1h1l-1-1zm25 0v1-1zm47 0v1-1zm15 0v1-1zm2 0v1h1l-1-1zm90 0v1-1zm110 0v1-1zm10 0v1-1zm44 0v1-1zm-347 1v1-1zm182 0v1-1zm112 0v1-1zm10 0v1-1zm91 0v1-1zm95 0v1-1zm-538 1v1-1zm2 0v1-1zm75 0v1-1zm49 0v1-1zm103 0v1-1zm6 0v1h1l-1-1zm99 0l-1 2h1v-2zm-107 1v1-1zm3 0v1-1zm47 0v1-1zm5 0v1-1zm59 0v1-1zm139 0v1-1zm-228 2v1-1zm-151 1v1-1zm-2 1v1h1l-1-1zm420 0v1-1zm-418 1v1-1zm153 0v1-1zm263 0v1-1zm-494 1v1-1zm79 0v1-1zm105 1v1-1zm30 51v1-1zm2 0v1-1zm16 0v1-1zm8 0v1-1zm5 0v1-1zm-32 1v1-1zm18 0v1-1zm5 0v1-1zm-22 1v1-1zm3 0v1-1zm5 0v1-1zm2 0v1-1zm16 0v1-1zm2 0v1-1zm3 0v1-1zm2 0v1-1zm2 0v1-1zm-31 1l-4 1q-9 5-13 15l-8 7v2q-10 7-14 20l-2 1 2 3v2l2 4-1 2 2 1-2 1h3l7 6 2 4 5 2 10 11v1l8 6 5 1 4-1 2-2v-8l1-1-1-2v-2l-1-1-18-21-4-4v-2l2-3 4-3v-2l7-9q3-6 9-7 2-3 1-9h2l-2-1v-1l-1-6-3-4-4-1zm13 0v1-1zm2 0v1-1zm3 0v1-1zm5 0v1-1zm2 0v1-1zm7 0v1-1zm-22 1v1-1zm10 0l-7 2-1 4v8l6 9q-1 2 3 1l2 4 5 3 5 9 5 1-2 5-4 2q1 3-2 5 1 2-1 1-3 1-1 3l-3 4-3 2v2h-2v3l-5 7q1 6 5 9l2-1 2 1 4 4h2l2-1h2q2-1 0-2l12-16 6-5-1-1 10-15 3-2 1-2v-9l-1-1q-3-1-1-2l-18-12-6-5q1-3-1-2l-5-6q-4-2-1-3-3-3-8-2l-4-2zm-32 3v1-1zm50 0v1-1zm2 0v1-1zm-5 2v1-1zm5 1v1-1zm-30 3v1-1zm28 0v1-1zm1 1v1-1zm-82 3v1-1zm25 0v1-1zm-28 1v1-1zm4 0l-2 3 2-1v-2zm83 0v1-1zm-81 1v1-1zm85 0v1-1zm-65 1v1-1zm64 0v1-1zm2 0v1-1zm-1 1v1-1zm-32 1v1-1zm42 2v1-1zm-45 1v1-1zm44 0v1-1zm2 0l1 2q1-3-1-2zm-40 1v1-1zm-45 1v1-1zm3 0v1-1zm30 0v1-1zm3 0v1-1zm-37 1v1-1zm43 0v1-1zm-8 1v1-1zm4 0v1-1zm46 0v1-1zm-86 2v1-1zm34 0v1-1zm-38 1v1-1zm37 0v1-1zm13 0q-2 3-7 1l-4 2-5 9q-1 7 2 11 4 5 13 7l2-1 1 1q-1-3 3-2l6-7q1-9-1-13l-10-6v-2zm3 0v1-1zm-53 2v1-1zm60 0v1-1zm-59 1v1h1l-1-1zm-3 1v1-1zm2 0v1-1zm61 0v1-1zm-30 1v1-1zm28 0v1-1zm-61 1v1-1zm2 0v1-1zm64 2v1-1zm-67 1v1-1zm65 0v1-1zm1 2v1-1zm-38 1v1-1zm6 1v1-1zm38 0v1-1zm-40 1v1-1zm-37 1v1-1zm30 1v1-1zm42 0v1-1zm-31 1v1-1zm32 0v1-1zm5 0v1-1zm-48 1v1-1zm5 0v1-1zm3 0v1-1zm33 0v1-1zm34 1l1 2 2-1-3-1zm-105 1v1-1zm73 2v1-1zm-33 1v1-1zm32 1v1-1zm-1 1v1-1zm-30 1v1-1zm61 0v1-1zm3 0v1-1zm-67 1v1-1zm11 0v1-1zm57 0v1-1zm-101 1v1-1zm36 0v1-1zm60 0v1-1zm2 0v1-1zm-36 1v1-1zm-5 1v1-1zm39 0v1-1zm-37 1v1-1zm35 0v1-1zm-91 1v1-1zm55 0v1-1zm2 0l-1 2h1v-2zm-54 2v1-1zm-1 1v1-1zm42 1v1-1zm45 1v1-1zm2 0v1-1zm-1 1v1-1zm-42 1v1-1zm6 0v1-1zm-5 1v1-1zm3 0v1h1l-1-1zm-171 1v1-1zm166 0v1-1zm-37 1v1h2l-2-1zm-133 1v1-1zm4 1v1-1zm199 0v1-1zm2 0v1-1zm-202 1v1-1zm129 0v1-1zm7 0v1-1zm32 0v1-1zm0 3l-1 2h1v-2zm-32 1v1-1zm29 0v1-1zm-28 1v1h1l-1-1zm32 0v1-1zm26 1v1-1zm-1 1v1-1zm2 0v1-1zm-59 1v1-1zm31 0v1-1zm2 0v1-1zm23 0v1-1zm-21 1v1-1zm20 0v1-1zm-49 1v1h1l-1-1zm50 1v1-1zm-17 1v1-1zm-31 1v1-1zm34 0v1-1zm17 0v1-1zm-16 1v1-1zm10 0v1-1zm-46 1v1-1zm30 0v1-1zm8 0v1-1zm-7 1v1-1zm4 0v1-1zm8 0v1-1zm6 0v1-1zm-43 1v1-1zm115.5-346v1-1z"/><path fill="#FFF" stroke="#FFF" d="M260.5 210q2.8 1.3.5 2.5l6 11-2.5 1.5-1-1-10.5-.5 3-8.5 3-1.5 1.5-3.5zm-139 130l3 1h3l6.5 3.5q-1.1 3.3 1.5 2.5l2.5 5.5-2 1 1 5-3.5 4.5q-3.8 3.7-11 4l-11-3-3.5-3.5q-3.2-2.3-2-9l.5-2.5q3.8 1.3 2.5-2.5h2l-1-2 5.5-3.5h2l3 1 1-2zm-5.5 2v1-1zm10 0l-1 2h1v-2zm4 3v1-1zm3 4v1-1zm1 1v1-1zm-24 1v1-1zm1 2l-1 2h1v-2zm-1 6v1-1zm14 1v1-1zm-13 1v1-1zm6 0v1-1zm8 0v1-1zm1 1v1-1zm2 0v1-1zm-11 1v1-1zm8 0v1-1zm6 0v1-1zm-5 1v1-1zm-3 1v1-1zm2 0v1-1zm241.5-21v1-1zm-291 33v1-1z"/><path fill="#82443C" stroke="#82443C" d="M151 188l3.5 2h55l4.5-2v17.5l-1.5.5-2-2H191v40.5l1.5.5q3 1.5 0 3h-21l-.5-1.5 2-2V204h-18.5l-3.5 2v-7.5l-1-1 1-3V188zm62 1l-2 2h-59l1 13 1-1h20v42l-1 1 1 1h17l-1-2v-40l2-2h19l2 1v-15zm96-1q3.4-.7 4.5 2h55l3.5-2v17.5l-1.5.5-2-2H350v40.5l1.5 1.5 1.5.5-1.5 1.5h-21q-3-1.5 0-3l1.5-.5V204h-18.5l-3 2-1.5-1.5V188zm3 2l-1 14 2-1h19l1 2v40l-1 1 1 1h17l-1-2v-42h21l1 1v-13h-58l-1-1zm-204.5-1l16 1 13 3 3.5-1-6.5 13 .5-1.5 5-10-1.5-.5-4 1-12-3h-21l-9 3-4.5 3.5-4.5 6.5-.5-1.5 6.5-7.5 11-5q6.3 1.8 8-1zm352 0l14 1 7.5 2.5-3.5.5-6-2h-18l-11 3-10.5 7-6 12.5v11q1.9 8.6 7.5 13.5 5.9 6.1 16 8l21 1 9-2 13.5-5.5-9.5-13.5-6 6-7 3h-15q-9.6-1.9-13.5-9.5l-1-10q1.6-6.9 7.5-9.5 7.6-4.9 22-3l7 2 3.5 3.5.5 1.5 7.5-15-3-.5 5-1.5-7 16.5-2.5 2.5-3-5q-7.9-4.6-22-3-7.6 1.4-11.5 6.5-3.8 3.2-3 11l4.5 7.5q6.5 7.5 23 5l11.5-6.5 1.5-3.5 3.5 2.5 9 13v2.5l-3.5-1-20 7h-17q-1.2-2.3-6-1l-12-5-7.5-7.5-4-8v-15q3.8-9.7 11.5-15.5l15-6q6.2 1.8 8-1zm30.5 5v1-1zm-241.5-4h25l.5 2.5-1 2 17 37 6 12 3 3-1.5 1.5h-19l-1.5-1.5q3.5-1.5 1-3l-3.5-7.5h-28l-1.5 1.5-3 8 1 2.5h-18.5l-.5-1.5 3-3 10.5-23.5.5 1.5-12 25.5h14.5l.5-3.5 3-7.5 2.5-1h28l5.5 8.5v3.5h15.5l.5-1.5-21-43-3-9q2.3-1.2-.5-2.5h-22q-1 0-.5 4.5l-8.5 18.5-.5-1.5 7-14 1-6q-2.3-1.2.5-2.5zm139 0h23l.5 1.5-3 1.5-1 2.5v47l1 2.5 3 1.5-.5 1.5h-23l-1-2 3.5-2.5v-49l-1.5-1.5-2.5-1.5 1.5-1.5zm2.5 1l1 4v49l-1 2v1h18l-2-3v-49l1-1v-3h-17z"/><path fill="#82443C" stroke="#82443C" d="M482.5 193l2.5.5-2.5.5v-1zm-378 8q17.9-2.4 26.5 4.5l.5 1.5 1.5-.5q.8 2.3-1.5 1.5l-1.5-3-10.5-3h-15l-6 3 1-2 5-2zm155 3q3.8-1.2 2.5 2.5l4 8h-1l-4.5-9.5-10.5 20.5.5 1.5q-2.2.8-1.5-1.5l10.5-21.5zm-178 1l.5 7.5h-1l.5-7.5zm16 1l.5 1.5h-1l.5-1.5zm1 3l3.5 1.5-2.5.5-1-2zm5 2l3.5.5-3.5.5v-1zm5 1l14 1 7 2 8.5 5 1 2.5-4.5-3.5-13-5-13-1v-1zm-26 2l3 4 12 5 22 3 4.5 3.5-1 5.5-4.5 2h-16v-1h16l4.5-3.5q.8-3.7-1.5-4.5l-7-2-19-2q-8.9-2.1-13.5-8.5l.5-1.5zm157 1l.5 1.5-1.5 2.5-.5-1.5 1.5-2.5zm27 1l5.5 10.5-2.5.5.5-1.5-4-8 .5-1.5zm-127 8l.5 2.5h-1l.5-2.5z"/><path fill="#82443C" stroke="#82443C" d="M84 228l3 1.5 2.5 3.5 11.5 2.5-4.5.5-5-1-5.5-3.5q.7-2.6-2-1.5l-.5 3-.5-2.5 1-2.5zm56.5 0l.5 1.5h-1l.5-1.5zm-1 4l.5 2.5-7.5 9.5q-11.1 6.4-31 4l-19-4-2 1v-1l6-1 5 2 12 1 1 1h15l8-2 8.5-5.5 3.5-7.5zm-57 2l.5 1.5h-1l.5-1.5zm-1 4l.5 1.5h-1l.5-1.5zm-1 3l.5 1.5h-1l.5-1.5zm-40 83l17 1 10 3H74l-.5 3-1-2-2 1-8-3-17-2-1 1h-9l-8 2-12.5 8.5-5 9-.5 3.5-.5-3.5 8.5-12.5 10-6 13-3zm78 0h8l10 2q11.3 4.2 17.5 13.5l2 6h-1l-1-4-8.5-9.5-10-5-15-2-1 1-11 1-13.5 8-4.5 7-.5-1.5 9.5-10.5 12-5q5.5 1.5 7-1zm412 0h10l15 3h7q1.3-2.2 2.5.5l-6 13-2.5 2.5-3-4-6-2-15-1-8.5 3.5-.5 1.5-.5-3 9.5-3h9l10 2 4.5 2.5q-.7 2.6 2 1.5l5-13-29.5-3-15 3-10.5 9.5-1 9 3.5 5.5 13 6h8l1 1 11 1 5.5 3.5q1 5.5-2.5 6.5-4.6 2.9-13 2l-1-1-13-1-10.5-5-3 13 4.5-1 15 4h11l1 1 16-3 9.5-7.5 2-9-2-6-2.5-2.5-8-4-16-3h-6l-7.5-3.5.5-1.5.5 2 7.5 2h7l15 3 9.5 5 3 10.5-1 5-4.5 6.5q-9.5 8.5-29 7l-23-5-3 2-.5-3.5 4-13.5q3.8-1.5 3 1.5l2.5 2.5 6 2 19 2 5-1 3.5-2.5q1-4.5-1.5-5.5l-8-2-19-2-11.5-6q-3-3.2-2-11.5 2.1-7.9 8.5-11.5l6-3 10-2zM170 325h22.5l.5 2q-2.7-1.1-2 1.5h-1l-.5-2.5H173l-.5 3-.5-2q-3 1-2-2zm73 0h22.5l.5 1.5-1 1v36l2.5 3.5q5.1 3.4 15 2l5.5-2 2-4.5v-34q-3.7-1.7-.5-3.5h21l.5 2-3 1.5v33l-4 11-4.5 4.5-11 5-16 1-14-4-7.5-6.5-1-2 4 3 1.5 2.5 12 5h9l1 1 16-3 10.5-8.5 3-10v-33l1-1-17.5-.5.5 1.5v35l-3.5 5.5q-5.1 3.4-15 2l-4-1-3.5-3.5-1-2v-36l.5-1.5h-17l-.5 1.5 1 1v34h-1v-34l-1.5-1.5q-3.7 1-2.5-2zm88 0h26.5l.5 1.5-1 3 9.5 18.5q2.3.8 1.5-1.5l9-16v-3l-1-2.5h26.5l.5 1.5-2 2v50l2.5 3.5h-21l-.5-2 3-1.5-.5-34.5-10 18-.5-1.5 10.5-18.5 1.5.5v37l-.5 1.5 15.5-.5-1-1v-52l.5-1.5-22.5.5 1 2-11.5 21.5-2.5-1.5-8-15-1-7.5-23 .5 1 1v52l-.5 1.5 14.5-.5-2-3v-34l3-1.5 15 29.5 1 4.5q2.7 1.1 2-1.5l6.5-11.5.5 1.5-7 13.5q-2.7 1.1-2-1.5L348.5 344l-.5 34.5 2.5 3.5h-19l-.5-1.5 2-2v-50l-2-3.5zm91 0h29.5l.5 1.5q-3.5 1.5-1 3l20.5 22.5 1.5-.5v-23l-3-1.5.5-2H492q1.1 2.7-1.5 2l-1.5 1.5v50l3 1.5-.5 2H469q-1-3 2-2v-3.5L441.5 345l-.5 33.5 3 1.5-.5 2H422l3-4.5v-48l-3-4.5zm3 1l1 3v50l-1 1 1 1h15l-1-1v-35l3-1 12 15 7 5v2l9 9 1 3v2l1 1h16l-1-1v-52l1-1-16-1 1 3v24l-1 1-3-2-4-4-5-5-12-13 1-3-25-1zm-235.5 5v1-1z"/><path fill="#82443C" stroke="#82443C" d="M72.5 332l.5 1.5-7.5 12.5q-2.6.8-1.5-2.5l-9.5-4.5-12-1q-9.5 1.6-14.5 7.5l-1.5 2.5-.5-1.5 8.5-7.5 7-2h10l10 3 3.5 3.5.5 1.5 7-13zm46 5q15.4-.9 20.5 8.5l1 4h-1q-.2-4.7-3.5-6.5-4.8-5.7-16-5-9.1 1.9-13.5 8.5l-1 11 1 2h-1q-2.3-3.2-1-10l5.5-8.5 9-4zm-29 6l.5 1.5-1.5 5.5-.5-4.5 1.5-2.5zm67 5l.5 10.5h-1l.5-10.5zm-131 1l.5 2.5h-1l.5-2.5zm-17 1q-.2 12.2 5.5 18.5l-3-2-3-9 .5-7.5zm132 2l.5 2.5h-1l.5-2.5zm-115 3l.5 2.5h-1l.5-2.5zm63 2l1.5 6.5h-1l-.5-6.5zm51 0l.5 1.5h-1l.5-1.5zm-73 1l4.5 4.5 8 13.5h-5.5l-3 2-18 5h-12l-13-3q-8.7-2.8-13.5-9.5l3.5 2.5 14 7 16 2 1-1 12-1 15-6 1.5.5L66.5 359q-.5 5.5-5 7l-11 4h-8l-8-2-7.5-6.5-1-2 7.5 6.5 10 3h6l8-2 7.5-5.5 1.5-3.5zm72 2l.5 1.5q-4.8 9.2-19.5 8.5l-7-2-5.5-4.5-1-2 5.5 4.5 4 2 9 1 7-2 6.5-5.5.5-1.5z"/><path fill="#82443C" stroke="#82443C" d="M155.5 361l.5 2.5-8.5 11.5-15 7-15 1-9-2-9-4-7.5-7.5-2-4h1l4 6.5 3 1.5q-.7 2.3 1.5 1.5l10 5 13 2 18-4 10.5-8.5 4.5-8.5zm93 3l.5 2.5h-1l.5-2.5zm-59 2v1-1zm39 0l1.5.5V385l-5.5-3-55.5-.5 4-3-1 2 54.5.5 2 2 .5-14.5-1.5.5-3 1h-33l-1-2h36l2-2zm21 2v1-1zm12 77q6.2-.7 7.5 3.5l2 12-3.5 5.5-7.5 6.5-11 14-2 5 16 17 8 14q-2.8 1.8-1 8l-1.5 1.5-6 1-3-1-31.5-29.5q-3.6-5.4-4-14l9-14 25.5-28.5 3-1zm18 2q11.2-2.2 14.5 3.5l2 4 11.5 11.5 16.5 10.5 4 6v4l-15 22-18.5 22.5-3 1-11.5-8.5-1-4 23-33.5-8-5.5-2.5-4.5-5.5-4.5-3.5-4.5-4.5-3.5q-3-4-3-11l2.5-4.5 2-1zm-60 13l1.5.5-1.5.5v-1z"/><path fill="#82443C" stroke="#82443C" d="M269.5 475h8l10.5 8.5 1 6q-1.1 7.4-6.5 10.5-3.5 2.5-11 1l-6.5-5.5q-3.8-3.2-2-12l3-6.5 3.5-2z"/><path stroke="#000" d="M212.5 189l.5 15-2.5-1h-19l-1.5 1.5v40l1 2.5h-17.5l-.5-1.5 1-1V203h-20.5l-1 1-.5-13.5 1.5.5h57l2-2zm99 1l1 1h57l1.5-.5-.5 13.5-1-1H349v41.5l1 2.5h-17.5l-.5-1.5 1-1v-40l-1.5-1.5h-19l-1.5.5.5-13.5zm-211 1h21l15 3 2-1-.5 1.5-6.5 12.5-2-3q-9-5-25-3l-6.5 3.5-1 3 2.5 3.5 29 5q6.8 2.3 10.5 7.5l1 8-6.5 10.5-14 5h-15l-22-4-2 1 .5-1.5 3-12.5q2.7-1.1 2 1.5l5.5 3.5 5 1 22 1 4.5-2 1-5.5-4.5-3.5-17-2-12-3-7.5-5.5q-2.5-3.5-1-11l6.5-8.5 12-5zm148.5 0h22.5l1.5 1.5-1 2 24 52.5h-15.5l-.5-3.5-5.5-8.5h-28l-2.5 1-3 11h-14.5l-.5-1.5 4-6 10-25 7-13 2-10.5zm11 13l-11 23h23l-10-20q1-4-2-3zm130-13h16.5l.5 2.5-1 1v49l2 3-18.5.5.5-1.5 1-2v-49l-1-3.5zm63.5 0h18l17 4 1.5-.5-8.5 15.5-4-5q-7.9-3.6-21-2-10 2-14.5 9.5l-1 10 1 3 7.5 7.5q7.6 3.9 21 2l7-3 6-6 9.5 13.5-17.5 6.5-5 1h-15l-13-3-11.5-8.5-5-11v-11l6-12.5 10.5-7 11-3zm-408 134l17 2 9 3 1.5-.5-7.5 15.5-4-5-10-3h-10l-7 2-8.5 7.5-1 11 6.5 8.5 11 4h8l11-4 4.5-4.5.5-2.5L77 374.5l-1.5-.5-15 6-14 2-1-1h-9l-11-3-11.5-8.5q-5.7-6.8-5-20 2.1-8.9 7.5-14.5l11-7 8-2h9l1-1zm75 0l11 1 7 2q7.8 3.3 12.5 9.5 7.5 6.5 5 23l-2 5-9.5 10.5-10 4-13 2-1-1-11-1-11.5-5-1.5-3q-2.2.8-1.5-1.5l-5-6-2-8v-6l2-8 5-7.5 13.5-8 11-1 1-1zm-1.5 12l-9 4-6 9v8l3 6 6 4 7 2h6l8-3 5-5 2-7-2-9q-5-10-20-9zm414.5-12l29.5 3-5 13q-2.7 1.1-2-1.5l-8.5-3.5-15-1-9.5 3q-1.5 5.4 1.5 7l6 2h6l16 3 10.5 6.5 2 8-2 7-5.5 5.5-7 3-12 1-1 1-1-1h-11l-17-4-2.5 1 3-13 10.5 5 21 2 6-2 2.5-2.5q1-5.5-2.5-6.5l-15-3h-8q-9.7-2.3-15.5-8.5l-1-8 1-4 8.5-8.5 8-3h8l1-1zM173 326h16.5q1 0 .5 4.5v35l-1 1 2.5 3.5h33l4-2 .5 14.5-2.5-1.5-54.5-.5 1-1V326zm74 0l18 .5-1 1v36l4.5 5.5 14 1 7.5-4.5 1-3v-35l-.5-1.5 17.5.5-1 1v33l-1 5q-2.1 7.9-8.5 11.5l-7 3-12 1-1 1-1-1h-9l-9-3-4.5-3.5q-4.7-3.8-6-11v-35l-1-2.5zm86.5 0h22q1 0 .5 4.5l10.5 19.5 2.5-1.5 10-21-.5-1.5 22.5.5-1 1v52l.5 1.5-15.5-.5 1-1V342l-4 2.5-15 31.5q-2.7 1.1-2-1.5L349 342l-3 1.5v34l2 3-14.5.5.5-1.5v-52l-.5-1.5zm91.5 0l25 .5-1 3 11.5 13.5 5.5 4.5 3.5 4.5 3 2 1.5-1.5v-24l-1-2.5 16 .5-1 1v52l.5 1.5h-16l-.5-1.5v-2l-1-3-9-9V364l-7-5.5-12.5-14.5-2.5.5v35l.5 1.5h-15l-.5-1.5 1-1v-50l-1-2.5z"/></svg>