<?xml version="1.0" standalone="no"?>
<!DOCTYPE svg PUBLIC "-//W3C//DTD SVG 20010904//EN"
 "http://www.w3.org/TR/2001/REC-SVG-20010904/DTD/svg10.dtd">
<svg version="1.0" xmlns="http://www.w3.org/2000/svg"
 width="700.000000pt" height="700.000000pt" viewBox="0 0 700.000000 700.000000"
 preserveAspectRatio="xMidYMid meet">
<metadata>
Created by potrace 1.11, written by Peter Selinger 2001-2013
</metadata>
<g transform="translate(0.000000,700.000000) scale(0.100000,-0.100000)"
fill="#000000" stroke="none">
<path d="M0 3500 l0 -3500 3500 0 3500 0 0 3500 0 3500 -2969 0 c-2366 0
-2970 -3 -2974 -12 -4 -10 -6 -10 -6 -1 -1 10 -121 12 -526 13 l-525 0 0
-3500z m6045 3430 c-2 -4 -16 -5 -30 -3 -13 3 -23 9 -20 13 2 4 16 5 30 3 13
-3 23 -9 20 -13z m22 -12 c-3 -8 -6 -5 -6 6 -1 11 2 17 5 13 3 -3 4 -12 1 -19z
m-5297 -12 c0 -9 -30 -14 -35 -6 -4 6 3 10 14 10 12 0 21 -2 21 -4z m5465 -26
c3 -5 -1 -10 -10 -10 -9 0 -13 5 -10 10 3 6 8 10 10 10 2 0 7 -4 10 -10z
m-5595 -34 c0 -11 -19 -15 -25 -6 -3 5 1 10 9 10 9 0 16 -2 16 -4z m5731 -26
c10 0 19 -6 19 -13 0 -8 9 -22 19 -31 11 -10 17 -25 14 -33 -4 -10 -9 -11 -17
-3 -6 6 -11 14 -11 18 -3 33 -19 52 -45 52 -16 0 -32 4 -35 10 -3 6 1 7 9 4
10 -4 16 -1 17 7 0 11 2 11 6 2 2 -7 13 -13 24 -13z m-5774 -6 c-3 -3 -12 -4
-19 -1 -8 3 -5 6 6 6 11 1 17 -2 13 -5z m-37 -24 c0 -5 -5 -10 -11 -10 -5 0
-7 5 -4 10 3 6 8 10 11 10 2 0 4 -4 4 -10z m187 -92 c-3 -7 -5 -2 -5 12 0 14
2 19 5 13 2 -7 2 -19 0 -25z m-27 -4 c0 -8 -5 -12 -10 -9 -6 4 -8 11 -5 16 9
14 15 11 15 -7z m-60 -24 c-6 -11 -15 -20 -20 -20 -16 0 -11 18 8 29 24 14 24
14 12 -9z m-282 -30 c-7 -11 -16 -20 -20 -20 -5 0 -3 9 4 20 7 11 16 20 20 20
5 0 3 -9 -4 -20z m6192 -26 c0 -8 7 -14 15 -14 8 0 15 -6 15 -14 0 -8 6 -17
13 -19 7 -3 5 -6 -5 -6 -10 -1 -18 5 -18 12 0 7 -9 18 -20 25 -11 7 -20 19
-20 28 0 8 5 12 10 9 6 -3 10 -13 10 -21z m-153 -56 c10 -16 11 -58 2 -58 -12
0 -25 24 -27 48 -1 24 12 29 25 10z m-5870 -15 c0 -20 -15 -43 -28 -43 -9 0
-1 28 14 48 12 16 14 15 14 -5z m6088 -3 c3 -5 1 -10 -4 -10 -6 0 -11 5 -11
10 0 6 2 10 4 10 3 0 8 -4 11 -10z m-6138 -102 c-3 -8 -6 -5 -6 6 -1 11 2 17
5 13 3 -3 4 -12 1 -19z m-17 -68 c0 -5 -2 -10 -4 -10 -3 0 -8 5 -11 10 -3 6
-1 10 4 10 6 0 11 -4 11 -10z m-36 -65 c-4 -8 -8 -15 -10 -15 -2 0 -4 7 -4 15
0 8 4 15 10 15 5 0 7 -7 4 -15z m6066 0 c0 -8 -2 -15 -4 -15 -2 0 -6 7 -10 15
-3 8 -1 15 4 15 6 0 10 -7 10 -15z m-6008 -1183 c4 -13 -1 -18 -16 -20 -15 -1
-17 1 -7 7 7 5 10 14 7 20 -4 6 -3 11 2 11 5 0 12 -8 14 -18z m35 -64 c12 -17
14 -58 3 -58 -12 0 -21 17 -25 46 -2 26 7 31 22 12z m5883 -6 c0 -10 -6 -27
-14 -38 -14 -18 -15 -17 -12 11 2 17 4 33 5 38 2 15 21 6 21 -11z m-120 -152
c-28 -21 -33 -20 -24 4 3 9 16 16 28 16 20 0 20 -1 -4 -20z m-5550 -19 c0 -4
-11 -6 -25 -3 -14 2 -25 6 -25 8 0 2 11 4 25 4 14 0 25 -4 25 -9z m5490 0 c0
-6 -4 -13 -10 -16 -5 -3 -10 -2 -10 4 0 5 -10 12 -22 14 -17 3 -14 5 10 6 17
0 32 -3 32 -8z m-110 -21 c0 -5 -5 -10 -11 -10 -5 0 -7 5 -4 10 3 6 8 10 11
10 2 0 4 -4 4 -10z m-5050 -524 c0 -11 -19 -15 -25 -6 -3 5 1 10 9 10 9 0 16
-2 16 -4z m3760 -15 c0 -19 -12 -41 -20 -36 -10 6 -1 45 11 45 5 0 9 -4 9 -9z
m-43 -103 c-3 -8 -6 -5 -6 6 -1 11 2 17 5 13 3 -3 4 -12 1 -19z m-24 -68 c-3
-11 -9 -20 -14 -20 -11 0 -11 3 -3 24 9 23 23 20 17 -4z m-42 -97 c-12 -20
-14 -14 -5 12 4 9 9 14 11 11 3 -2 0 -13 -6 -23z m-26 -63 c-4 -12 -9 -19 -12
-17 -3 3 -2 15 2 27 4 12 9 19 12 17 3 -3 2 -15 -2 -27z m-25 -74 c0 -3 -4 -8
-10 -11 -5 -3 -10 -1 -10 4 0 6 5 11 10 11 6 0 10 -2 10 -4z m-810 -73 c0 -7
-4 -13 -9 -13 -5 0 -14 -12 -19 -27 l-10 -28 -1 28 c-1 15 3 27 9 27 5 0 8 14
6 32 -4 30 -3 31 10 13 8 -10 14 -25 14 -32z m1024 -67 c-3 -9 -10 -16 -15
-16 -6 0 -5 9 1 21 13 24 24 20 14 -5z m-1055 -63 c0 -16 -3 -22 -6 -13 -3 8
-10 21 -16 28 -7 8 -5 12 7 12 11 0 16 -8 15 -27z m1018 -25 c-3 -7 -5 -2 -5
12 0 14 2 19 5 13 2 -7 2 -19 0 -25z m-23 -63 c-4 -8 -10 -15 -15 -15 -4 0 -6
7 -3 15 4 8 10 15 15 15 4 0 6 -7 3 -15z m-564 -140 c0 -5 -5 -3 -10 5 -5 8
-10 20 -10 25 0 6 5 3 10 -5 5 -8 10 -19 10 -25z m491 -28 c-10 -9 -11 -8 -5
6 3 10 9 15 12 12 3 -3 0 -11 -7 -18z m-434 -134 c-3 -10 -5 -4 -5 12 0 17 2
24 5 18 2 -7 2 -21 0 -30z m-530 -25 c-3 -7 -5 -2 -5 12 0 14 2 19 5 13 2 -7
2 -19 0 -25z m567 -66 c-6 -14 -8 -13 -14 8 -9 31 0 48 12 26 5 -10 6 -25 2
-34z m-3614 -822 c0 -15 -7 -20 -25 -20 -25 0 -33 14 -15 25 6 3 10 1 10 -4 0
-6 5 -11 11 -11 6 0 9 7 5 15 -3 8 -1 15 4 15 6 0 10 -9 10 -20z m5473 -17
c-7 -2 -19 -2 -25 0 -7 3 -2 5 12 5 14 0 19 -2 13 -5z m-5557 -12 c-4 -5 0
-11 6 -14 7 -2 1 -4 -15 -4 -22 0 -25 2 -16 13 13 15 34 19 25 5z m5752 -114
c12 -14 5 -57 -9 -57 -5 0 -10 3 -10 8 -10 62 -4 77 19 49z m-5873 -15 c-1
-22 -13 -42 -25 -42 -10 0 -3 28 13 48 12 16 14 15 12 -6z m-42 -92 c-3 -11
-9 -20 -15 -20 -5 0 -4 9 2 20 6 11 12 20 14 20 2 0 2 -9 -1 -20z m5964 -16
c-3 -3 -12 -4 -19 -1 -8 3 -5 6 6 6 11 1 17 -2 13 -5z m-6025 -141 c-3 -16 -7
-22 -10 -15 -4 13 4 42 11 42 2 0 2 -12 -1 -27z m6445 -835 c-3 -8 -6 -5 -6 6
-1 11 2 17 5 13 3 -3 4 -12 1 -19z m-6849 -39 c-3 -8 -7 -3 -11 10 -4 17 -3
21 5 13 5 -5 8 -16 6 -23z m459 -311 c-3 -7 -5 -2 -5 12 0 14 2 19 5 13 2 -7
2 -19 0 -25z m40 -50 c12 -17 14 -58 3 -58 -13 0 -25 22 -25 48 -1 25 8 28 22
10z m5883 -6 c0 -10 -6 -27 -14 -38 -14 -18 -15 -17 -12 11 2 17 4 33 5 38 2
15 21 6 21 -11z m-125 -158 c-23 -17 -32 -10 -15 11 7 8 17 12 23 8 6 -4 3
-11 -8 -19z m-5568 -10 c-3 -3 -12 -4 -19 -1 -8 3 -5 6 6 6 11 1 17 -2 13 -5z
m5513 -3 c0 -6 -4 -13 -10 -16 -5 -3 -10 1 -10 9 0 9 5 16 10 16 6 0 10 -4 10
-9z m-393 -477 c-3 -3 -12 -4 -19 -1 -8 3 -5 6 6 6 11 1 17 -2 13 -5z"/>
</g>
</svg>
